<mxfile host="Electron" agent="Mozilla/5.0 (Macintosh; Intel Mac OS X 10_15_7) AppleWebKit/537.36 (KHTML, like Gecko) draw.io/24.7.5 Chrome/126.0.6478.183 Electron/31.3.0 Safari/537.36" version="24.7.5">
  <diagram name="Page-1" id="Idu7VvZ-PZcBLYNtUArA">
    <mxGraphModel dx="3382" dy="1342" grid="1" gridSize="10" guides="1" tooltips="1" connect="1" arrows="1" fold="1" page="1" pageScale="1" pageWidth="850" pageHeight="1100" math="0" shadow="0">
      <root>
        <mxCell id="0" />
        <mxCell id="1" parent="0" />
        <mxCell id="5aSi395ixU3ctmeISOfq-1" style="edgeStyle=orthogonalEdgeStyle;rounded=0;orthogonalLoop=1;jettySize=auto;html=1;exitX=1;exitY=0.5;exitDx=0;exitDy=0;" edge="1" parent="1" source="5aSi395ixU3ctmeISOfq-4" target="5aSi395ixU3ctmeISOfq-12">
          <mxGeometry relative="1" as="geometry" />
        </mxCell>
        <mxCell id="5aSi395ixU3ctmeISOfq-2" style="edgeStyle=orthogonalEdgeStyle;rounded=0;orthogonalLoop=1;jettySize=auto;html=1;exitX=1;exitY=0.25;exitDx=0;exitDy=0;entryX=0;entryY=0.75;entryDx=0;entryDy=0;" edge="1" parent="1" source="5aSi395ixU3ctmeISOfq-4" target="5aSi395ixU3ctmeISOfq-37">
          <mxGeometry relative="1" as="geometry">
            <Array as="points">
              <mxPoint x="460" y="500" />
              <mxPoint x="460" y="260" />
            </Array>
          </mxGeometry>
        </mxCell>
        <mxCell id="5aSi395ixU3ctmeISOfq-3" style="edgeStyle=orthogonalEdgeStyle;rounded=0;orthogonalLoop=1;jettySize=auto;html=1;exitX=1;exitY=1;exitDx=0;exitDy=0;" edge="1" parent="1" source="5aSi395ixU3ctmeISOfq-4">
          <mxGeometry relative="1" as="geometry">
            <mxPoint x="430" y="1210" as="targetPoint" />
          </mxGeometry>
        </mxCell>
        <mxCell id="5aSi395ixU3ctmeISOfq-4" value="&lt;span style=&quot;font-family: Menlo, Monaco, Consolas, &amp;quot;Courier New&amp;quot;, monospace; text-align: start; white-space: pre;&quot;&gt;&lt;font style=&quot;font-size: 12px;&quot;&gt;fcn_findEdge_loadLIDARData&lt;/font&gt;&lt;/span&gt;" style="rounded=0;whiteSpace=wrap;html=1;fillColor=#66FF66;" vertex="1" parent="1">
          <mxGeometry x="120" y="480" width="200" height="80" as="geometry" />
        </mxCell>
        <mxCell id="5aSi395ixU3ctmeISOfq-5" value="" style="html=1;labelBackgroundColor=#ffffff;startArrow=none;startFill=0;startSize=6;endArrow=classic;endFill=1;endSize=6;jettySize=auto;orthogonalLoop=1;strokeWidth=1;dashed=1;fontSize=14;rounded=0;entryX=0.5;entryY=0;entryDx=0;entryDy=0;" edge="1" parent="1">
          <mxGeometry width="60" height="60" relative="1" as="geometry">
            <mxPoint x="219.5" y="420" as="sourcePoint" />
            <mxPoint x="219.5" y="480" as="targetPoint" />
          </mxGeometry>
        </mxCell>
        <mxCell id="5aSi395ixU3ctmeISOfq-6" value="test date&amp;nbsp;" style="text;html=1;align=center;verticalAlign=middle;whiteSpace=wrap;rounded=0;" vertex="1" parent="1">
          <mxGeometry x="110" y="390" width="60" height="30" as="geometry" />
        </mxCell>
        <mxCell id="5aSi395ixU3ctmeISOfq-7" value="" style="html=1;labelBackgroundColor=#ffffff;startArrow=none;startFill=0;startSize=6;endArrow=classic;endFill=1;endSize=6;jettySize=auto;orthogonalLoop=1;strokeWidth=1;dashed=1;fontSize=14;rounded=0;entryX=0.5;entryY=0;entryDx=0;entryDy=0;" edge="1" parent="1">
          <mxGeometry width="60" height="60" relative="1" as="geometry">
            <mxPoint x="300" y="420" as="sourcePoint" />
            <mxPoint x="300" y="480" as="targetPoint" />
          </mxGeometry>
        </mxCell>
        <mxCell id="5aSi395ixU3ctmeISOfq-8" value="" style="html=1;labelBackgroundColor=#ffffff;startArrow=none;startFill=0;startSize=6;endArrow=classic;endFill=1;endSize=6;jettySize=auto;orthogonalLoop=1;strokeWidth=1;dashed=1;fontSize=14;rounded=0;entryX=0.5;entryY=0;entryDx=0;entryDy=0;" edge="1" parent="1">
          <mxGeometry width="60" height="60" relative="1" as="geometry">
            <mxPoint x="140" y="420" as="sourcePoint" />
            <mxPoint x="140" y="480" as="targetPoint" />
          </mxGeometry>
        </mxCell>
        <mxCell id="5aSi395ixU3ctmeISOfq-9" value="Vehicle pose file name" style="text;html=1;align=center;verticalAlign=middle;whiteSpace=wrap;rounded=0;" vertex="1" parent="1">
          <mxGeometry x="190" y="380" width="60" height="30" as="geometry" />
        </mxCell>
        <mxCell id="5aSi395ixU3ctmeISOfq-10" value="LiDAR file name" style="text;html=1;align=center;verticalAlign=middle;whiteSpace=wrap;rounded=0;" vertex="1" parent="1">
          <mxGeometry x="270" y="390" width="60" height="30" as="geometry" />
        </mxCell>
        <mxCell id="5aSi395ixU3ctmeISOfq-11" style="edgeStyle=orthogonalEdgeStyle;rounded=0;orthogonalLoop=1;jettySize=auto;html=1;exitX=1;exitY=0.5;exitDx=0;exitDy=0;" edge="1" parent="1" source="5aSi395ixU3ctmeISOfq-12">
          <mxGeometry relative="1" as="geometry">
            <mxPoint x="1040" y="520" as="targetPoint" />
          </mxGeometry>
        </mxCell>
        <mxCell id="5aSi395ixU3ctmeISOfq-12" value="&lt;div style=&quot;padding: 30px; text-align: start;&quot; class=&quot;rtcContent&quot;&gt;&lt;div style=&quot;font-family: Menlo, Monaco, Consolas, &amp;quot;Courier New&amp;quot;, monospace;&quot; class=&quot;lineNode&quot;&gt;&lt;span style=&quot;white-space: pre;&quot;&gt;&lt;font style=&quot;font-size: 12px;&quot;&gt;fcn_findEdge_pointsAtRangeOfLiDARFromStation&lt;/font&gt;&lt;/span&gt;&lt;/div&gt;&lt;/div&gt;" style="rounded=0;whiteSpace=wrap;html=1;fillColor=#66FF66;" vertex="1" parent="1">
          <mxGeometry x="480" y="480" width="320" height="80" as="geometry" />
        </mxCell>
        <mxCell id="5aSi395ixU3ctmeISOfq-13" value="Load LiDAR and Vehicle pose data" style="text;html=1;align=center;verticalAlign=middle;whiteSpace=wrap;rounded=0;" vertex="1" parent="1">
          <mxGeometry x="100" y="570" width="220" height="30" as="geometry" />
        </mxCell>
        <mxCell id="5aSi395ixU3ctmeISOfq-14" value="Find the scan lines that are &quot;range of LiDAR&quot; meters away from the start scan line and the end scan line" style="text;html=1;align=center;verticalAlign=middle;whiteSpace=wrap;rounded=0;" vertex="1" parent="1">
          <mxGeometry x="484" y="570" width="320" height="30" as="geometry" />
        </mxCell>
        <mxCell id="5aSi395ixU3ctmeISOfq-15" value="" style="html=1;labelBackgroundColor=#ffffff;startArrow=none;startFill=0;startSize=6;endArrow=classic;endFill=1;endSize=6;jettySize=auto;orthogonalLoop=1;strokeWidth=1;dashed=1;fontSize=14;rounded=0;entryX=0.5;entryY=0;entryDx=0;entryDy=0;" edge="1" parent="1">
          <mxGeometry width="60" height="60" relative="1" as="geometry">
            <mxPoint x="520" y="420" as="sourcePoint" />
            <mxPoint x="520" y="480" as="targetPoint" />
          </mxGeometry>
        </mxCell>
        <mxCell id="5aSi395ixU3ctmeISOfq-16" value="" style="html=1;labelBackgroundColor=#ffffff;startArrow=none;startFill=0;startSize=6;endArrow=classic;endFill=1;endSize=6;jettySize=auto;orthogonalLoop=1;strokeWidth=1;dashed=1;fontSize=14;rounded=0;entryX=0.5;entryY=0;entryDx=0;entryDy=0;" edge="1" parent="1">
          <mxGeometry width="60" height="60" relative="1" as="geometry">
            <mxPoint x="640" y="420" as="sourcePoint" />
            <mxPoint x="640" y="480" as="targetPoint" />
          </mxGeometry>
        </mxCell>
        <mxCell id="5aSi395ixU3ctmeISOfq-17" value="End scan line" style="text;html=1;align=center;verticalAlign=middle;whiteSpace=wrap;rounded=0;" vertex="1" parent="1">
          <mxGeometry x="606.5" y="390" width="75" height="30" as="geometry" />
        </mxCell>
        <mxCell id="5aSi395ixU3ctmeISOfq-18" value="" style="html=1;labelBackgroundColor=#ffffff;startArrow=none;startFill=0;startSize=6;endArrow=classic;endFill=1;endSize=6;jettySize=auto;orthogonalLoop=1;strokeWidth=1;dashed=1;fontSize=14;rounded=0;entryX=0.5;entryY=0;entryDx=0;entryDy=0;" edge="1" parent="1">
          <mxGeometry width="60" height="60" relative="1" as="geometry">
            <mxPoint x="760" y="420" as="sourcePoint" />
            <mxPoint x="760" y="480" as="targetPoint" />
          </mxGeometry>
        </mxCell>
        <mxCell id="5aSi395ixU3ctmeISOfq-19" value="Range of LiDAR&amp;nbsp;" style="text;html=1;align=center;verticalAlign=middle;whiteSpace=wrap;rounded=0;" vertex="1" parent="1">
          <mxGeometry x="720" y="390" width="75" height="30" as="geometry" />
        </mxCell>
        <mxCell id="5aSi395ixU3ctmeISOfq-20" value="Index of start scan line - range of LiDAR" style="text;html=1;align=center;verticalAlign=middle;whiteSpace=wrap;rounded=0;" vertex="1" parent="1">
          <mxGeometry x="820" y="480" width="110" height="30" as="geometry" />
        </mxCell>
        <mxCell id="5aSi395ixU3ctmeISOfq-21" value="Index of end scan line + range of LiDAR" style="text;html=1;align=center;verticalAlign=middle;whiteSpace=wrap;rounded=0;" vertex="1" parent="1">
          <mxGeometry x="820" y="530" width="110" height="30" as="geometry" />
        </mxCell>
        <mxCell id="5aSi395ixU3ctmeISOfq-22" style="edgeStyle=orthogonalEdgeStyle;rounded=0;orthogonalLoop=1;jettySize=auto;html=1;exitX=1;exitY=0.5;exitDx=0;exitDy=0;" edge="1" parent="1" source="5aSi395ixU3ctmeISOfq-27" target="5aSi395ixU3ctmeISOfq-31">
          <mxGeometry relative="1" as="geometry" />
        </mxCell>
        <mxCell id="5aSi395ixU3ctmeISOfq-23" style="edgeStyle=orthogonalEdgeStyle;rounded=0;orthogonalLoop=1;jettySize=auto;html=1;exitX=1;exitY=0.25;exitDx=0;exitDy=0;entryX=0;entryY=0.5;entryDx=0;entryDy=0;" edge="1" parent="1">
          <mxGeometry relative="1" as="geometry">
            <mxPoint x="800" y="500" as="sourcePoint" />
            <mxPoint x="960" y="240" as="targetPoint" />
            <Array as="points">
              <mxPoint x="810" y="500" />
              <mxPoint x="810" y="240" />
            </Array>
          </mxGeometry>
        </mxCell>
        <mxCell id="5aSi395ixU3ctmeISOfq-24" style="edgeStyle=orthogonalEdgeStyle;rounded=0;orthogonalLoop=1;jettySize=auto;html=1;exitX=1;exitY=0.75;exitDx=0;exitDy=0;entryX=0;entryY=0.5;entryDx=0;entryDy=0;" edge="1" parent="1" source="5aSi395ixU3ctmeISOfq-27">
          <mxGeometry relative="1" as="geometry">
            <mxPoint x="1360" y="760" as="targetPoint" />
            <Array as="points">
              <mxPoint x="1200" y="560" />
              <mxPoint x="1220" y="560" />
              <mxPoint x="1220" y="760" />
            </Array>
          </mxGeometry>
        </mxCell>
        <mxCell id="5aSi395ixU3ctmeISOfq-25" style="edgeStyle=orthogonalEdgeStyle;rounded=0;orthogonalLoop=1;jettySize=auto;html=1;exitX=1;exitY=0.75;exitDx=0;exitDy=0;entryX=0;entryY=0.75;entryDx=0;entryDy=0;" edge="1" parent="1" source="5aSi395ixU3ctmeISOfq-27" target="5aSi395ixU3ctmeISOfq-55">
          <mxGeometry relative="1" as="geometry">
            <Array as="points">
              <mxPoint x="1230" y="540" />
              <mxPoint x="1230" y="680" />
              <mxPoint x="1700" y="680" />
              <mxPoint x="1700" y="540" />
            </Array>
          </mxGeometry>
        </mxCell>
        <mxCell id="5aSi395ixU3ctmeISOfq-26" style="edgeStyle=orthogonalEdgeStyle;rounded=0;orthogonalLoop=1;jettySize=auto;html=1;exitX=1;exitY=0.25;exitDx=0;exitDy=0;" edge="1" parent="1" source="5aSi395ixU3ctmeISOfq-27">
          <mxGeometry relative="1" as="geometry">
            <mxPoint x="270" y="1880" as="targetPoint" />
            <Array as="points">
              <mxPoint x="1210" y="500" />
              <mxPoint x="1210" y="990" />
              <mxPoint x="120" y="990" />
              <mxPoint x="120" y="1880" />
            </Array>
          </mxGeometry>
        </mxCell>
        <mxCell id="5aSi395ixU3ctmeISOfq-333" style="edgeStyle=orthogonalEdgeStyle;rounded=0;orthogonalLoop=1;jettySize=auto;html=1;exitX=1;exitY=0.25;exitDx=0;exitDy=0;entryX=0;entryY=0.75;entryDx=0;entryDy=0;" edge="1" parent="1" source="5aSi395ixU3ctmeISOfq-27" target="5aSi395ixU3ctmeISOfq-232">
          <mxGeometry relative="1" as="geometry">
            <Array as="points">
              <mxPoint x="1210" y="500" />
              <mxPoint x="1210" y="990" />
              <mxPoint x="20" y="990" />
              <mxPoint x="20" y="2370" />
              <mxPoint x="770" y="2370" />
              <mxPoint x="770" y="1940" />
            </Array>
          </mxGeometry>
        </mxCell>
        <mxCell id="5aSi395ixU3ctmeISOfq-27" value="&lt;div style=&quot;padding: 30px; text-align: start;&quot; class=&quot;rtcContent&quot;&gt;&lt;div style=&quot;font-family: Menlo, Monaco, Consolas, &amp;quot;Courier New&amp;quot;, monospace;&quot; class=&quot;lineNode&quot;&gt;&lt;span style=&quot;white-space: pre;&quot;&gt;&lt;font style=&quot;font-size: 12px;&quot;&gt;fcn_findEdge_extractScanLines&lt;/font&gt;&lt;/span&gt;&lt;/div&gt;&lt;/div&gt;" style="rounded=0;whiteSpace=wrap;html=1;fillColor=#66FF66;" vertex="1" parent="1">
          <mxGeometry x="960" y="480" width="240" height="80" as="geometry" />
        </mxCell>
        <mxCell id="5aSi395ixU3ctmeISOfq-28" style="edgeStyle=orthogonalEdgeStyle;rounded=0;orthogonalLoop=1;jettySize=auto;html=1;exitX=1;exitY=0.75;exitDx=0;exitDy=0;entryX=-0.008;entryY=0.925;entryDx=0;entryDy=0;entryPerimeter=0;" edge="1" parent="1" source="5aSi395ixU3ctmeISOfq-4" target="5aSi395ixU3ctmeISOfq-27">
          <mxGeometry relative="1" as="geometry">
            <Array as="points">
              <mxPoint x="450" y="540" />
              <mxPoint x="450" y="650" />
              <mxPoint x="940" y="650" />
              <mxPoint x="940" y="554" />
            </Array>
          </mxGeometry>
        </mxCell>
        <mxCell id="5aSi395ixU3ctmeISOfq-29" value="All LiDAR scans ENU" style="text;html=1;align=center;verticalAlign=middle;whiteSpace=wrap;rounded=0;" vertex="1" parent="1">
          <mxGeometry x="620" y="620" width="140" height="30" as="geometry" />
        </mxCell>
        <mxCell id="5aSi395ixU3ctmeISOfq-30" style="edgeStyle=orthogonalEdgeStyle;rounded=0;orthogonalLoop=1;jettySize=auto;html=1;exitX=1;exitY=0.5;exitDx=0;exitDy=0;entryX=0;entryY=0.5;entryDx=0;entryDy=0;" edge="1" parent="1" source="5aSi395ixU3ctmeISOfq-31" target="5aSi395ixU3ctmeISOfq-55">
          <mxGeometry relative="1" as="geometry" />
        </mxCell>
        <mxCell id="5aSi395ixU3ctmeISOfq-31" value="&lt;div style=&quot;padding: 30px; text-align: start;&quot; class=&quot;rtcContent&quot;&gt;&lt;div style=&quot;font-family: Menlo, Monaco, Consolas, &amp;quot;Courier New&amp;quot;, monospace;&quot; class=&quot;lineNode&quot;&gt;&lt;div style=&quot;padding: 30px;&quot; class=&quot;rtcContent&quot;&gt;&lt;div style=&quot;&quot; class=&quot;lineNode&quot;&gt;&lt;span style=&quot;white-space: pre;&quot;&gt;&lt;font style=&quot;font-size: 12px;&quot;&gt;fcn_findEdge_findPointsInDomain&lt;/font&gt;&lt;/span&gt;&lt;/div&gt;&lt;/div&gt;&lt;/div&gt;&lt;/div&gt;" style="rounded=0;whiteSpace=wrap;html=1;fillColor=#66FF66;" vertex="1" parent="1">
          <mxGeometry x="1360" y="480" width="240" height="80" as="geometry" />
        </mxCell>
        <mxCell id="5aSi395ixU3ctmeISOfq-32" value="" style="html=1;labelBackgroundColor=#ffffff;startArrow=none;startFill=0;startSize=6;endArrow=classic;endFill=1;endSize=6;jettySize=auto;orthogonalLoop=1;strokeWidth=1;dashed=1;fontSize=14;rounded=0;entryX=0.5;entryY=0;entryDx=0;entryDy=0;" edge="1" parent="1">
          <mxGeometry width="60" height="60" relative="1" as="geometry">
            <mxPoint x="1478.46" y="420" as="sourcePoint" />
            <mxPoint x="1478.46" y="480" as="targetPoint" />
          </mxGeometry>
        </mxCell>
        <mxCell id="5aSi395ixU3ctmeISOfq-33" value="" style="html=1;labelBackgroundColor=#ffffff;startArrow=none;startFill=0;startSize=6;endArrow=classic;endFill=1;endSize=6;jettySize=auto;orthogonalLoop=1;strokeWidth=1;dashed=1;fontSize=14;rounded=0;entryX=0.5;entryY=0;entryDx=0;entryDy=0;" edge="1" parent="1">
          <mxGeometry width="60" height="60" relative="1" as="geometry">
            <mxPoint x="1580" y="420" as="sourcePoint" />
            <mxPoint x="1580" y="480" as="targetPoint" />
          </mxGeometry>
        </mxCell>
        <mxCell id="5aSi395ixU3ctmeISOfq-34" value="Extracts vehicle pose ENU, vehicle pose unit orthogonal vectors, LiDAR ENU scans, LiDAR Intensity, LiDAR scan line, and Ring IDs&amp;nbsp;of the scan line range" style="text;html=1;align=center;verticalAlign=middle;whiteSpace=wrap;rounded=0;" vertex="1" parent="1">
          <mxGeometry x="967.5" y="550" width="220" height="110" as="geometry" />
        </mxCell>
        <mxCell id="5aSi395ixU3ctmeISOfq-36" style="edgeStyle=orthogonalEdgeStyle;rounded=0;orthogonalLoop=1;jettySize=auto;html=1;exitX=1;exitY=0.5;exitDx=0;exitDy=0;entryX=0;entryY=0.5;entryDx=0;entryDy=0;" edge="1" parent="1" source="5aSi395ixU3ctmeISOfq-37" target="5aSi395ixU3ctmeISOfq-63">
          <mxGeometry relative="1" as="geometry" />
        </mxCell>
        <mxCell id="5aSi395ixU3ctmeISOfq-37" value="&lt;div style=&quot;padding: 30px; text-align: start;&quot; class=&quot;rtcContent&quot;&gt;&lt;div style=&quot;font-family: Menlo, Monaco, Consolas, &amp;quot;Courier New&amp;quot;, monospace;&quot; class=&quot;lineNode&quot;&gt;&lt;div style=&quot;padding: 30px;&quot; class=&quot;rtcContent&quot;&gt;&lt;div style=&quot;&quot; class=&quot;lineNode&quot;&gt;&lt;div style=&quot;padding: 30px;&quot; class=&quot;rtcContent&quot;&gt;&lt;div style=&quot;&quot; class=&quot;lineNode&quot;&gt;&lt;div style=&quot;padding: 30px;&quot; class=&quot;rtcContent&quot;&gt;&lt;div style=&quot;&quot; class=&quot;lineNode&quot;&gt;&lt;span style=&quot;white-space: pre;&quot;&gt;&lt;font style=&quot;font-size: 12px;&quot;&gt;fcn_findEdge_findDrivenPathBoundaryPoints&lt;/font&gt;&lt;/span&gt;&lt;/div&gt;&lt;/div&gt;&lt;/div&gt;&lt;/div&gt;&lt;/div&gt;&lt;/div&gt;&lt;/div&gt;&lt;/div&gt;" style="rounded=0;whiteSpace=wrap;html=1;fillColor=#66FF66;" vertex="1" parent="1">
          <mxGeometry x="960" y="200" width="315" height="80" as="geometry" />
        </mxCell>
        <mxCell id="5aSi395ixU3ctmeISOfq-38" value="&amp;nbsp;Find the driven path points in LIDAR scans" style="text;html=1;align=center;verticalAlign=middle;whiteSpace=wrap;rounded=0;" vertex="1" parent="1">
          <mxGeometry x="1360" y="810" width="230" height="30" as="geometry" />
        </mxCell>
        <mxCell id="5aSi395ixU3ctmeISOfq-39" value="Find the points in the domain from LiDAR ENU scans of the scan line range" style="text;html=1;align=center;verticalAlign=middle;whiteSpace=wrap;rounded=0;" vertex="1" parent="1">
          <mxGeometry x="1360" y="570" width="240" height="30" as="geometry" />
        </mxCell>
        <mxCell id="5aSi395ixU3ctmeISOfq-40" value="Find the boundary points of the driven path to create a bounding box for finding the driven path grids&amp;nbsp;" style="text;html=1;align=center;verticalAlign=middle;whiteSpace=wrap;rounded=0;" vertex="1" parent="1">
          <mxGeometry x="970" y="300" width="260" height="30" as="geometry" />
        </mxCell>
        <mxCell id="5aSi395ixU3ctmeISOfq-41" value="" style="html=1;labelBackgroundColor=#ffffff;startArrow=none;startFill=0;startSize=6;endArrow=classic;endFill=1;endSize=6;jettySize=auto;orthogonalLoop=1;strokeWidth=1;dashed=1;fontSize=14;rounded=0;entryX=0.5;entryY=0;entryDx=0;entryDy=0;" edge="1" parent="1">
          <mxGeometry width="60" height="60" relative="1" as="geometry">
            <mxPoint x="1099.23" y="140" as="sourcePoint" />
            <mxPoint x="1099.23" y="200" as="targetPoint" />
          </mxGeometry>
        </mxCell>
        <mxCell id="5aSi395ixU3ctmeISOfq-42" value="Number of scans" style="text;html=1;align=center;verticalAlign=middle;whiteSpace=wrap;rounded=0;" vertex="1" parent="1">
          <mxGeometry x="1070" y="110" width="80" height="30" as="geometry" />
        </mxCell>
        <mxCell id="5aSi395ixU3ctmeISOfq-43" value="" style="html=1;labelBackgroundColor=#ffffff;startArrow=none;startFill=0;startSize=6;endArrow=classic;endFill=1;endSize=6;jettySize=auto;orthogonalLoop=1;strokeWidth=1;dashed=1;fontSize=14;rounded=0;entryX=0.5;entryY=0;entryDx=0;entryDy=0;" edge="1" parent="1">
          <mxGeometry width="60" height="60" relative="1" as="geometry">
            <mxPoint x="1225" y="140" as="sourcePoint" />
            <mxPoint x="1225" y="200" as="targetPoint" />
          </mxGeometry>
        </mxCell>
        <mxCell id="5aSi395ixU3ctmeISOfq-44" value="Shift (in m) - to shift the boundary points" style="text;html=1;align=center;verticalAlign=middle;whiteSpace=wrap;rounded=0;" vertex="1" parent="1">
          <mxGeometry x="1180" y="100" width="80" height="30" as="geometry" />
        </mxCell>
        <mxCell id="5aSi395ixU3ctmeISOfq-45" value="LiDAR ENU" style="text;html=1;align=center;verticalAlign=middle;whiteSpace=wrap;rounded=0;" vertex="1" parent="1">
          <mxGeometry x="1230" y="490" width="100" height="30" as="geometry" />
        </mxCell>
        <mxCell id="5aSi395ixU3ctmeISOfq-46" value="LiDAR Intensity" style="text;html=1;align=center;verticalAlign=middle;whiteSpace=wrap;rounded=0;" vertex="1" parent="1">
          <mxGeometry x="1230" y="520" width="100" height="30" as="geometry" />
        </mxCell>
        <mxCell id="5aSi395ixU3ctmeISOfq-47" value="LiDAR ENU" style="text;html=1;align=center;verticalAlign=middle;whiteSpace=wrap;rounded=0;" vertex="1" parent="1">
          <mxGeometry x="1240" y="710" width="100" height="30" as="geometry" />
        </mxCell>
        <mxCell id="5aSi395ixU3ctmeISOfq-48" value="Vehicle pose unit orthogonal vectors" style="text;html=1;align=center;verticalAlign=middle;whiteSpace=wrap;rounded=0;" vertex="1" parent="1">
          <mxGeometry x="1225" y="770" width="130" height="30" as="geometry" />
        </mxCell>
        <mxCell id="5aSi395ixU3ctmeISOfq-49" value="Vehicle ENU" style="text;html=1;align=center;verticalAlign=middle;whiteSpace=wrap;rounded=0;" vertex="1" parent="1">
          <mxGeometry x="1240" y="730" width="100" height="30" as="geometry" />
        </mxCell>
        <mxCell id="5aSi395ixU3ctmeISOfq-50" value="&lt;span style=&quot;font-family: Menlo, Monaco, Consolas, &amp;quot;Courier New&amp;quot;, monospace; text-align: start; white-space: pre;&quot;&gt;fcn_findEdge_findDrivableSurface&lt;/span&gt;" style="rounded=0;whiteSpace=wrap;html=1;fillColor=#66FF66;" vertex="1" parent="1">
          <mxGeometry x="1360" y="720" width="240" height="80" as="geometry" />
        </mxCell>
        <mxCell id="5aSi395ixU3ctmeISOfq-51" style="edgeStyle=orthogonalEdgeStyle;rounded=0;orthogonalLoop=1;jettySize=auto;html=1;exitX=1;exitY=0;exitDx=0;exitDy=0;entryX=0;entryY=0.75;entryDx=0;entryDy=0;" edge="1" parent="1" source="5aSi395ixU3ctmeISOfq-55" target="5aSi395ixU3ctmeISOfq-63">
          <mxGeometry relative="1" as="geometry">
            <Array as="points">
              <mxPoint x="2000" y="490" />
              <mxPoint x="2040" y="490" />
              <mxPoint x="2040" y="380" />
              <mxPoint x="1740" y="380" />
              <mxPoint x="1740" y="260" />
            </Array>
          </mxGeometry>
        </mxCell>
        <mxCell id="5aSi395ixU3ctmeISOfq-52" style="edgeStyle=orthogonalEdgeStyle;rounded=0;orthogonalLoop=1;jettySize=auto;html=1;exitX=1;exitY=0.75;exitDx=0;exitDy=0;" edge="1" parent="1" source="5aSi395ixU3ctmeISOfq-55">
          <mxGeometry relative="1" as="geometry">
            <mxPoint x="2040" y="680" as="targetPoint" />
          </mxGeometry>
        </mxCell>
        <mxCell id="5aSi395ixU3ctmeISOfq-53" style="edgeStyle=orthogonalEdgeStyle;rounded=0;orthogonalLoop=1;jettySize=auto;html=1;exitX=1;exitY=0.5;exitDx=0;exitDy=0;" edge="1" parent="1" source="5aSi395ixU3ctmeISOfq-55">
          <mxGeometry relative="1" as="geometry">
            <mxPoint x="2280" y="520" as="targetPoint" />
          </mxGeometry>
        </mxCell>
        <mxCell id="5aSi395ixU3ctmeISOfq-54" style="edgeStyle=orthogonalEdgeStyle;rounded=0;orthogonalLoop=1;jettySize=auto;html=1;exitX=1;exitY=0.5;exitDx=0;exitDy=0;" edge="1" parent="1" source="5aSi395ixU3ctmeISOfq-55">
          <mxGeometry relative="1" as="geometry">
            <mxPoint x="2100" y="1020" as="targetPoint" />
          </mxGeometry>
        </mxCell>
        <mxCell id="5aSi395ixU3ctmeISOfq-55" value="&lt;div style=&quot;padding: 30px; text-align: start;&quot; class=&quot;rtcContent&quot;&gt;&lt;div style=&quot;font-family: Menlo, Monaco, Consolas, &amp;quot;Courier New&amp;quot;, monospace;&quot; class=&quot;lineNode&quot;&gt;&lt;span style=&quot;white-space: pre; background-color: initial;&quot;&gt;&lt;font style=&quot;font-size: 12px;&quot;&gt;fcn_findEdge_findMaxMinOfXYZ&lt;/font&gt;&lt;/span&gt;&lt;/div&gt;&lt;div style=&quot;font-size: 13px; font-family: Menlo, Monaco, Consolas, &amp;quot;Courier New&amp;quot;, monospace;&quot; class=&quot;lineNode&quot;&gt;&lt;span style=&quot;white-space: pre; background-color: initial;&quot;&gt;&lt;br&gt;&lt;/span&gt;&lt;/div&gt;&lt;div style=&quot;font-family: Menlo, Monaco, Consolas, &amp;quot;Courier New&amp;quot;, monospace;&quot; class=&quot;lineNode&quot;&gt;&lt;span style=&quot;white-space: pre;&quot;&gt;&lt;font style=&quot;font-size: 12px;&quot;&gt;fcn_findEdge_findGridsWithPoints&lt;/font&gt;&lt;/span&gt;&lt;/div&gt;&lt;/div&gt;" style="rounded=0;whiteSpace=wrap;html=1;fillColor=#66FF66;" vertex="1" parent="1">
          <mxGeometry x="1760" y="480" width="240" height="80" as="geometry" />
        </mxCell>
        <mxCell id="5aSi395ixU3ctmeISOfq-56" value="Find the grid boundaries and separate the data into grids to find the empty and non-empty grids" style="text;html=1;align=center;verticalAlign=middle;whiteSpace=wrap;rounded=0;" vertex="1" parent="1">
          <mxGeometry x="1770" y="580" width="220" height="30" as="geometry" />
        </mxCell>
        <mxCell id="5aSi395ixU3ctmeISOfq-57" value="Indices of points in domain" style="text;html=1;align=center;verticalAlign=middle;whiteSpace=wrap;rounded=0;" vertex="1" parent="1">
          <mxGeometry x="1630" y="480" width="100" height="30" as="geometry" />
        </mxCell>
        <mxCell id="5aSi395ixU3ctmeISOfq-58" value="LiDAR ENU" style="text;html=1;align=center;verticalAlign=middle;whiteSpace=wrap;rounded=0;" vertex="1" parent="1">
          <mxGeometry x="1275" y="640" width="100" height="30" as="geometry" />
        </mxCell>
        <mxCell id="5aSi395ixU3ctmeISOfq-59" value="LiDAR scan line and Ring ID" style="text;html=1;align=center;verticalAlign=middle;whiteSpace=wrap;rounded=0;" vertex="1" parent="1">
          <mxGeometry x="1517.5" y="640" width="100" height="30" as="geometry" />
        </mxCell>
        <mxCell id="5aSi395ixU3ctmeISOfq-60" value="" style="html=1;labelBackgroundColor=#ffffff;startArrow=none;startFill=0;startSize=6;endArrow=classic;endFill=1;endSize=6;jettySize=auto;orthogonalLoop=1;strokeWidth=1;dashed=1;fontSize=14;rounded=0;entryX=0.5;entryY=0;entryDx=0;entryDy=0;" edge="1" parent="1">
          <mxGeometry width="60" height="60" relative="1" as="geometry">
            <mxPoint x="1879.29" y="420" as="sourcePoint" />
            <mxPoint x="1879.29" y="480" as="targetPoint" />
          </mxGeometry>
        </mxCell>
        <mxCell id="5aSi395ixU3ctmeISOfq-61" value="grid size" style="text;html=1;align=center;verticalAlign=middle;whiteSpace=wrap;rounded=0;" vertex="1" parent="1">
          <mxGeometry x="1850" y="390" width="60" height="30" as="geometry" />
        </mxCell>
        <mxCell id="5aSi395ixU3ctmeISOfq-62" style="edgeStyle=orthogonalEdgeStyle;rounded=0;orthogonalLoop=1;jettySize=auto;html=1;exitX=1;exitY=0.5;exitDx=0;exitDy=0;" edge="1" parent="1" source="5aSi395ixU3ctmeISOfq-63">
          <mxGeometry relative="1" as="geometry">
            <mxPoint x="2280" y="240" as="targetPoint" />
          </mxGeometry>
        </mxCell>
        <mxCell id="5aSi395ixU3ctmeISOfq-352" style="edgeStyle=orthogonalEdgeStyle;rounded=0;orthogonalLoop=1;jettySize=auto;html=1;exitX=1;exitY=0.25;exitDx=0;exitDy=0;" edge="1" parent="1" source="5aSi395ixU3ctmeISOfq-63">
          <mxGeometry relative="1" as="geometry">
            <mxPoint x="2810" y="1880" as="targetPoint" />
            <Array as="points">
              <mxPoint x="2130" y="220" />
              <mxPoint x="2130" y="10" />
              <mxPoint x="3710" y="10" />
              <mxPoint x="3710" y="1630" />
              <mxPoint x="2810" y="1630" />
            </Array>
          </mxGeometry>
        </mxCell>
        <mxCell id="5aSi395ixU3ctmeISOfq-63" value="&lt;div style=&quot;padding: 30px; text-align: start;&quot; class=&quot;rtcContent&quot;&gt;&lt;div style=&quot;font-family: Menlo, Monaco, Consolas, &amp;quot;Courier New&amp;quot;, monospace;&quot; class=&quot;lineNode&quot;&gt;&lt;span style=&quot;white-space: pre;&quot;&gt;&lt;font style=&quot;font-size: 12px;&quot;&gt;fcn_findEdge_findDrivenPathGrids&lt;/font&gt;&lt;/span&gt;&lt;/div&gt;&lt;/div&gt;" style="rounded=0;whiteSpace=wrap;html=1;fillColor=#66FF66;" vertex="1" parent="1">
          <mxGeometry x="1760" y="200" width="240" height="80" as="geometry" />
        </mxCell>
        <mxCell id="5aSi395ixU3ctmeISOfq-64" value="Grids greater than zero points (non-empty grids)" style="text;html=1;align=center;verticalAlign=middle;whiteSpace=wrap;rounded=0;" vertex="1" parent="1">
          <mxGeometry x="1890" y="340" width="120" height="30" as="geometry" />
        </mxCell>
        <mxCell id="5aSi395ixU3ctmeISOfq-65" value="Grid centers of non-empty grids" style="text;html=1;align=center;verticalAlign=middle;whiteSpace=wrap;rounded=0;" vertex="1" parent="1">
          <mxGeometry x="1750" y="340" width="120" height="30" as="geometry" />
        </mxCell>
        <mxCell id="5aSi395ixU3ctmeISOfq-66" value="Total points in each grid" style="text;html=1;align=center;verticalAlign=middle;whiteSpace=wrap;rounded=0;" vertex="1" parent="1">
          <mxGeometry x="1642.5" y="340" width="75" height="30" as="geometry" />
        </mxCell>
        <mxCell id="5aSi395ixU3ctmeISOfq-67" value="Find the driven path grids from the non-empty grids&amp;nbsp;" style="text;html=1;align=center;verticalAlign=middle;whiteSpace=wrap;rounded=0;" vertex="1" parent="1">
          <mxGeometry x="1790" y="290" width="190" height="30" as="geometry" />
        </mxCell>
        <mxCell id="5aSi395ixU3ctmeISOfq-68" value="&lt;font style=&quot;font-size: 36px;&quot;&gt;Grid Preparation&lt;/font&gt;" style="swimlane;whiteSpace=wrap;html=1;startSize=40;" vertex="1" parent="1">
          <mxGeometry x="40" y="30" width="2080" height="930" as="geometry" />
        </mxCell>
        <mxCell id="5aSi395ixU3ctmeISOfq-69" value="Vehicle pose" style="text;html=1;align=center;verticalAlign=middle;whiteSpace=wrap;rounded=0;" vertex="1" parent="5aSi395ixU3ctmeISOfq-68">
          <mxGeometry x="320" y="467.5" width="75" height="30" as="geometry" />
        </mxCell>
        <mxCell id="5aSi395ixU3ctmeISOfq-70" value="Vehicle pose" style="text;html=1;align=center;verticalAlign=middle;whiteSpace=wrap;rounded=0;" vertex="1" parent="5aSi395ixU3ctmeISOfq-68">
          <mxGeometry x="320" y="437.5" width="75" height="30" as="geometry" />
        </mxCell>
        <mxCell id="5aSi395ixU3ctmeISOfq-71" value="Vehicle pose" style="text;html=1;align=center;verticalAlign=middle;whiteSpace=wrap;rounded=0;" vertex="1" parent="5aSi395ixU3ctmeISOfq-68">
          <mxGeometry x="450" y="590" width="75" height="30" as="geometry" />
        </mxCell>
        <mxCell id="5aSi395ixU3ctmeISOfq-72" value="Vehicle pose" style="text;html=1;align=center;verticalAlign=middle;whiteSpace=wrap;rounded=0;" vertex="1" parent="5aSi395ixU3ctmeISOfq-68">
          <mxGeometry x="320" y="300" width="75" height="30" as="geometry" />
        </mxCell>
        <mxCell id="5aSi395ixU3ctmeISOfq-73" value="Start scan line" style="text;html=1;align=center;verticalAlign=middle;whiteSpace=wrap;rounded=0;" vertex="1" parent="5aSi395ixU3ctmeISOfq-68">
          <mxGeometry x="435" y="360" width="90" height="30" as="geometry" />
        </mxCell>
        <mxCell id="5aSi395ixU3ctmeISOfq-74" value="Start scan line" style="text;html=1;align=center;verticalAlign=middle;whiteSpace=wrap;rounded=0;" vertex="1" parent="5aSi395ixU3ctmeISOfq-68">
          <mxGeometry x="1390" y="360" width="90" height="30" as="geometry" />
        </mxCell>
        <mxCell id="5aSi395ixU3ctmeISOfq-75" value="End scan line" style="text;html=1;align=center;verticalAlign=middle;whiteSpace=wrap;rounded=0;" vertex="1" parent="5aSi395ixU3ctmeISOfq-68">
          <mxGeometry x="1500" y="360" width="75" height="30" as="geometry" />
        </mxCell>
        <mxCell id="5aSi395ixU3ctmeISOfq-76" value="empty grids" style="text;html=1;align=center;verticalAlign=middle;whiteSpace=wrap;rounded=0;" vertex="1" parent="5aSi395ixU3ctmeISOfq-68">
          <mxGeometry x="1980" y="640" width="80" height="30" as="geometry" />
        </mxCell>
        <mxCell id="5aSi395ixU3ctmeISOfq-77" value="Points of bounding box" style="text;html=1;align=center;verticalAlign=middle;whiteSpace=wrap;rounded=0;" vertex="1" parent="5aSi395ixU3ctmeISOfq-68">
          <mxGeometry x="1335" y="180" width="262.5" height="30" as="geometry" />
        </mxCell>
        <mxCell id="5aSi395ixU3ctmeISOfq-78" value="Points of bounding box" style="text;html=1;align=center;verticalAlign=middle;whiteSpace=wrap;rounded=0;" vertex="1" parent="5aSi395ixU3ctmeISOfq-68">
          <mxGeometry x="1335" y="90" width="262.5" height="30" as="geometry" />
        </mxCell>
        <mxCell id="5aSi395ixU3ctmeISOfq-138" value="LiDAR ENU" style="text;html=1;align=center;verticalAlign=middle;whiteSpace=wrap;rounded=0;" vertex="1" parent="5aSi395ixU3ctmeISOfq-68">
          <mxGeometry x="1170" y="830" width="100" height="30" as="geometry" />
        </mxCell>
        <mxCell id="5aSi395ixU3ctmeISOfq-361" value="Index of start scan line - range of LiDAR" style="text;html=1;align=center;verticalAlign=middle;whiteSpace=wrap;rounded=0;" vertex="1" parent="5aSi395ixU3ctmeISOfq-68">
          <mxGeometry x="780" y="170" width="110" height="30" as="geometry" />
        </mxCell>
        <mxCell id="5aSi395ixU3ctmeISOfq-362" value="Index of end scan line + range of LiDAR" style="text;html=1;align=center;verticalAlign=middle;whiteSpace=wrap;rounded=0;" vertex="1" parent="5aSi395ixU3ctmeISOfq-68">
          <mxGeometry x="780" y="130" width="110" height="30" as="geometry" />
        </mxCell>
        <mxCell id="5aSi395ixU3ctmeISOfq-79" value="&lt;div style=&quot;padding: 30px; text-align: start;&quot; class=&quot;rtcContent&quot;&gt;&lt;div style=&quot;font-family: Menlo, Monaco, Consolas, &amp;quot;Courier New&amp;quot;, monospace;&quot; class=&quot;lineNode&quot;&gt;&lt;span style=&quot;white-space: pre;&quot;&gt;&lt;font style=&quot;font-size: 12px;&quot;&gt;fcn_findEdge_calcNumberOfGridScanLines&lt;/font&gt;&lt;/span&gt;&lt;/div&gt;&lt;div style=&quot;font-size: 13px; font-family: Menlo, Monaco, Consolas, &amp;quot;Courier New&amp;quot;, monospace;&quot; class=&quot;lineNode&quot;&gt;&lt;span style=&quot;white-space: pre;&quot;&gt;&lt;br&gt;&lt;/span&gt;&lt;/div&gt;&lt;div style=&quot;font-family: Menlo, Monaco, Consolas, &amp;quot;Courier New&amp;quot;, monospace;&quot; class=&quot;lineNode&quot;&gt;&lt;span style=&quot;white-space: pre; background-color: initial;&quot;&gt;&lt;font style=&quot;font-size: 12px;&quot;&gt;fcn_findEdge_classifyGridsBasedOnScanLines&lt;/font&gt;&lt;/span&gt;&lt;/div&gt;&lt;/div&gt;" style="rounded=0;whiteSpace=wrap;html=1;fillColor=#66FF66;" vertex="1" parent="1">
          <mxGeometry x="2320" y="480" width="360" height="80" as="geometry" />
        </mxCell>
        <mxCell id="5aSi395ixU3ctmeISOfq-80" value="Grids greater than zero points (non-empty grids)" style="text;html=1;align=center;verticalAlign=middle;whiteSpace=wrap;rounded=0;" vertex="1" parent="1">
          <mxGeometry x="2117.5" y="470" width="120" height="30" as="geometry" />
        </mxCell>
        <mxCell id="5aSi395ixU3ctmeISOfq-81" value="&lt;font style=&quot;font-size: 36px;&quot;&gt;Drivability of Grids&lt;/font&gt;" style="swimlane;whiteSpace=wrap;html=1;startSize=40;" vertex="1" parent="1">
          <mxGeometry x="2240" y="30" width="1280" height="930" as="geometry" />
        </mxCell>
        <mxCell id="5aSi395ixU3ctmeISOfq-82" value="&lt;span style=&quot;font-size: 11px;&quot;&gt;Determine the suitable &quot;point density&quot; for the analysis by comparing the point densities of driven grids with those of neighboring grids&lt;/span&gt;" style="text;html=1;align=center;verticalAlign=middle;whiteSpace=wrap;rounded=0;" vertex="1" parent="5aSi395ixU3ctmeISOfq-81">
          <mxGeometry x="90" y="300" width="350" height="40" as="geometry" />
        </mxCell>
        <mxCell id="5aSi395ixU3ctmeISOfq-83" value="Determine the number of LiDAR scan lines in each grid" style="text;html=1;align=center;verticalAlign=middle;whiteSpace=wrap;rounded=0;" vertex="1" parent="5aSi395ixU3ctmeISOfq-81">
          <mxGeometry x="90" y="540" width="330" height="30" as="geometry" />
        </mxCell>
        <mxCell id="5aSi395ixU3ctmeISOfq-84" value="Find the orthogonal distances of points in the remaining rings by projecting orthogonally from one ring.&amp;nbsp;" style="text;html=1;align=center;verticalAlign=middle;whiteSpace=wrap;rounded=0;" vertex="1" parent="5aSi395ixU3ctmeISOfq-81">
          <mxGeometry x="80" y="780" width="350" height="30" as="geometry" />
        </mxCell>
        <mxCell id="5aSi395ixU3ctmeISOfq-85" value="no. of scan lines in each non-empty grid &amp;gt;= 1" style="text;html=1;align=center;verticalAlign=middle;whiteSpace=wrap;rounded=0;" vertex="1" parent="5aSi395ixU3ctmeISOfq-81">
          <mxGeometry x="130" y="420" width="250" height="30" as="geometry" />
        </mxCell>
        <mxCell id="5aSi395ixU3ctmeISOfq-86" value="minimum transverse span &amp;gt;= transverse_span_threshold" style="text;html=1;align=center;verticalAlign=middle;whiteSpace=wrap;rounded=0;" vertex="1" parent="5aSi395ixU3ctmeISOfq-81">
          <mxGeometry x="110" y="650" width="310" height="30" as="geometry" />
        </mxCell>
        <mxCell id="5aSi395ixU3ctmeISOfq-87" value="&lt;div style=&quot;padding: 30px; text-align: start;&quot; class=&quot;rtcContent&quot;&gt;&lt;div style=&quot;font-family: Menlo, Monaco, Consolas, &amp;quot;Courier New&amp;quot;, monospace;&quot; class=&quot;lineNode&quot;&gt;&lt;span style=&quot;white-space: pre;&quot;&gt;&lt;font style=&quot;font-size: 12px;&quot;&gt;fcn_findEdge_determineGridPointDensity&lt;/font&gt;&lt;/span&gt;&lt;/div&gt;&lt;div style=&quot;font-size: 13px; font-family: Menlo, Monaco, Consolas, &amp;quot;Courier New&amp;quot;, monospace;&quot; class=&quot;lineNode&quot;&gt;&lt;span style=&quot;white-space: pre; background-color: initial;&quot;&gt;&lt;br&gt;&lt;/span&gt;&lt;/div&gt;&lt;div style=&quot;font-family: Menlo, Monaco, Consolas, &amp;quot;Courier New&amp;quot;, monospace;&quot; class=&quot;lineNode&quot;&gt;&lt;span style=&quot;white-space: pre; background-color: initial;&quot;&gt;&lt;font style=&quot;font-size: 12px;&quot;&gt;fcn_findEdge_classifyGridsBasedOnDensity&lt;/font&gt;&lt;/span&gt;&lt;/div&gt;&lt;/div&gt;" style="rounded=0;whiteSpace=wrap;html=1;fillColor=#66FF66;" vertex="1" parent="5aSi395ixU3ctmeISOfq-81">
          <mxGeometry x="80" y="210" width="360" height="80" as="geometry" />
        </mxCell>
        <mxCell id="5aSi395ixU3ctmeISOfq-88" value="&lt;div style=&quot;padding: 30px; text-align: start;&quot; class=&quot;rtcContent&quot;&gt;&lt;div style=&quot;font-family: Menlo, Monaco, Consolas, &amp;quot;Courier New&amp;quot;, monospace;&quot; class=&quot;lineNode&quot;&gt;&lt;span style=&quot;white-space: pre;&quot;&gt;&lt;font style=&quot;font-size: 12px;&quot;&gt;fcn_findEdge_determineTransverseSpanThreshold&lt;/font&gt;&lt;/span&gt;&lt;/div&gt;&lt;div style=&quot;font-size: 13px; font-family: Menlo, Monaco, Consolas, &amp;quot;Courier New&amp;quot;, monospace;&quot; class=&quot;lineNode&quot;&gt;&lt;span style=&quot;white-space: pre; background-color: initial;&quot;&gt;&lt;br&gt;&lt;/span&gt;&lt;/div&gt;&lt;div style=&quot;font-family: Menlo, Monaco, Consolas, &amp;quot;Courier New&amp;quot;, monospace;&quot; class=&quot;lineNode&quot;&gt;&lt;span style=&quot;white-space: pre; background-color: initial;&quot;&gt;&lt;font style=&quot;font-size: 12px;&quot;&gt;fcn_findEdge_classifyGridsBasedOnTransverseSpan&lt;/font&gt;&lt;/span&gt;&lt;/div&gt;&lt;/div&gt;" style="rounded=0;whiteSpace=wrap;html=1;fillColor=#66FF66;" vertex="1" parent="5aSi395ixU3ctmeISOfq-81">
          <mxGeometry x="80" y="690" width="360" height="80" as="geometry" />
        </mxCell>
        <mxCell id="5aSi395ixU3ctmeISOfq-89" value="" style="html=1;labelBackgroundColor=#ffffff;startArrow=none;startFill=0;startSize=6;endArrow=classic;endFill=1;endSize=6;jettySize=auto;orthogonalLoop=1;strokeWidth=1;dashed=1;fontSize=14;rounded=0;entryX=0.5;entryY=0;entryDx=0;entryDy=0;" edge="1" parent="5aSi395ixU3ctmeISOfq-81">
          <mxGeometry width="60" height="60" relative="1" as="geometry">
            <mxPoint x="100" y="80" as="sourcePoint" />
            <mxPoint x="100" y="140" as="targetPoint" />
          </mxGeometry>
        </mxCell>
        <mxCell id="5aSi395ixU3ctmeISOfq-90" value="Point density" style="text;html=1;align=center;verticalAlign=middle;whiteSpace=wrap;rounded=0;" vertex="1" parent="5aSi395ixU3ctmeISOfq-81">
          <mxGeometry x="210" y="40" width="100" height="30" as="geometry" />
        </mxCell>
        <mxCell id="5aSi395ixU3ctmeISOfq-91" style="edgeStyle=orthogonalEdgeStyle;rounded=0;orthogonalLoop=1;jettySize=auto;html=1;exitX=1;exitY=0.5;exitDx=0;exitDy=0;entryX=0;entryY=0.5;entryDx=0;entryDy=0;" edge="1" parent="5aSi395ixU3ctmeISOfq-81" source="5aSi395ixU3ctmeISOfq-92" target="5aSi395ixU3ctmeISOfq-115">
          <mxGeometry relative="1" as="geometry">
            <Array as="points">
              <mxPoint x="540" y="495" />
              <mxPoint x="540" y="90" />
            </Array>
          </mxGeometry>
        </mxCell>
        <mxCell id="5aSi395ixU3ctmeISOfq-92" value="Grid conditions" style="swimlane;whiteSpace=wrap;html=1;" vertex="1" parent="5aSi395ixU3ctmeISOfq-81">
          <mxGeometry x="40" y="140" width="430" height="710" as="geometry" />
        </mxCell>
        <mxCell id="5aSi395ixU3ctmeISOfq-93" value="no. of points per non-empty grid &amp;gt;= suitable point density" style="text;html=1;align=center;verticalAlign=middle;whiteSpace=wrap;rounded=0;" vertex="1" parent="5aSi395ixU3ctmeISOfq-92">
          <mxGeometry x="65" y="30" width="310" height="30" as="geometry" />
        </mxCell>
        <mxCell id="5aSi395ixU3ctmeISOfq-94" value="" style="html=1;labelBackgroundColor=#ffffff;startArrow=none;startFill=0;startSize=6;endArrow=classic;endFill=1;endSize=6;jettySize=auto;orthogonalLoop=1;strokeWidth=1;dashed=1;fontSize=14;rounded=0;entryX=0.5;entryY=0;entryDx=0;entryDy=0;exitX=0;exitY=0.25;exitDx=0;exitDy=0;" edge="1" parent="5aSi395ixU3ctmeISOfq-81" source="5aSi395ixU3ctmeISOfq-115">
          <mxGeometry width="60" height="60" relative="1" as="geometry">
            <mxPoint x="259.17" y="80" as="sourcePoint" />
            <mxPoint x="259.17" y="140" as="targetPoint" />
            <Array as="points">
              <mxPoint x="259" y="70" />
            </Array>
          </mxGeometry>
        </mxCell>
        <mxCell id="5aSi395ixU3ctmeISOfq-95" value="Grid size" style="text;html=1;align=center;verticalAlign=middle;whiteSpace=wrap;rounded=0;" vertex="1" parent="5aSi395ixU3ctmeISOfq-81">
          <mxGeometry x="50" y="50" width="100" height="30" as="geometry" />
        </mxCell>
        <mxCell id="5aSi395ixU3ctmeISOfq-96" value="" style="html=1;labelBackgroundColor=#ffffff;startArrow=none;startFill=0;startSize=6;endArrow=classic;endFill=1;endSize=6;jettySize=auto;orthogonalLoop=1;strokeWidth=1;dashed=1;fontSize=14;rounded=0;entryX=0.5;entryY=0;entryDx=0;entryDy=0;exitX=0;exitY=0.25;exitDx=0;exitDy=0;" edge="1" parent="5aSi395ixU3ctmeISOfq-81" source="5aSi395ixU3ctmeISOfq-115">
          <mxGeometry width="60" height="60" relative="1" as="geometry">
            <mxPoint x="420" y="80" as="sourcePoint" />
            <mxPoint x="420" y="140" as="targetPoint" />
            <Array as="points">
              <mxPoint x="420" y="70" />
            </Array>
          </mxGeometry>
        </mxCell>
        <mxCell id="5aSi395ixU3ctmeISOfq-97" value="Transverse span threshold" style="text;html=1;align=center;verticalAlign=middle;whiteSpace=wrap;rounded=0;" vertex="1" parent="5aSi395ixU3ctmeISOfq-81">
          <mxGeometry x="420" y="40" width="110" height="30" as="geometry" />
        </mxCell>
        <mxCell id="5aSi395ixU3ctmeISOfq-98" style="edgeStyle=orthogonalEdgeStyle;rounded=0;orthogonalLoop=1;jettySize=auto;html=1;exitX=1;exitY=0.25;exitDx=0;exitDy=0;entryX=0;entryY=0.5;entryDx=0;entryDy=0;" edge="1" parent="5aSi395ixU3ctmeISOfq-81" source="5aSi395ixU3ctmeISOfq-102" target="5aSi395ixU3ctmeISOfq-105">
          <mxGeometry relative="1" as="geometry">
            <Array as="points">
              <mxPoint x="940" y="590" />
              <mxPoint x="940" y="450" />
              <mxPoint x="590" y="450" />
              <mxPoint x="590" y="250" />
            </Array>
          </mxGeometry>
        </mxCell>
        <mxCell id="5aSi395ixU3ctmeISOfq-99" style="edgeStyle=orthogonalEdgeStyle;rounded=0;orthogonalLoop=1;jettySize=auto;html=1;exitX=1;exitY=0.75;exitDx=0;exitDy=0;" edge="1" parent="5aSi395ixU3ctmeISOfq-81" source="5aSi395ixU3ctmeISOfq-102">
          <mxGeometry relative="1" as="geometry">
            <mxPoint x="940" y="740" as="targetPoint" />
            <Array as="points">
              <mxPoint x="920" y="650" />
              <mxPoint x="941" y="650" />
              <mxPoint x="941" y="740" />
            </Array>
          </mxGeometry>
        </mxCell>
        <mxCell id="5aSi395ixU3ctmeISOfq-101" style="edgeStyle=orthogonalEdgeStyle;rounded=0;orthogonalLoop=1;jettySize=auto;html=1;exitX=1;exitY=0.5;exitDx=0;exitDy=0;" edge="1" parent="5aSi395ixU3ctmeISOfq-81" source="5aSi395ixU3ctmeISOfq-102">
          <mxGeometry relative="1" as="geometry">
            <mxPoint x="1040" y="1151" as="targetPoint" />
          </mxGeometry>
        </mxCell>
        <mxCell id="5aSi395ixU3ctmeISOfq-102" value="&lt;div style=&quot;padding: 30px; text-align: start;&quot; class=&quot;rtcContent&quot;&gt;&lt;div style=&quot;font-family: Menlo, Monaco, Consolas, &amp;quot;Courier New&amp;quot;, monospace;&quot; class=&quot;lineNode&quot;&gt;&lt;span style=&quot;white-space: pre;&quot;&gt;&lt;font style=&quot;font-size: 12px;&quot;&gt;fcn_findEdge_classifyQualifiedGrids&lt;/font&gt;&lt;/span&gt;&lt;/div&gt;&lt;/div&gt;" style="rounded=0;whiteSpace=wrap;html=1;fillColor=#66FF66;" vertex="1" parent="5aSi395ixU3ctmeISOfq-81">
          <mxGeometry x="640" y="570" width="280" height="80" as="geometry" />
        </mxCell>
        <mxCell id="5aSi395ixU3ctmeISOfq-103" style="edgeStyle=orthogonalEdgeStyle;rounded=0;orthogonalLoop=1;jettySize=auto;html=1;exitX=1;exitY=0.75;exitDx=0;exitDy=0;entryX=0;entryY=0.5;entryDx=0;entryDy=0;" edge="1" parent="5aSi395ixU3ctmeISOfq-81" source="5aSi395ixU3ctmeISOfq-92" target="5aSi395ixU3ctmeISOfq-102">
          <mxGeometry relative="1" as="geometry">
            <Array as="points">
              <mxPoint x="470" y="610" />
            </Array>
          </mxGeometry>
        </mxCell>
        <mxCell id="5aSi395ixU3ctmeISOfq-105" value="&lt;div style=&quot;padding: 30px; text-align: start;&quot; class=&quot;rtcContent&quot;&gt;&lt;div style=&quot;font-family: Menlo, Monaco, Consolas, &amp;quot;Courier New&amp;quot;, monospace;&quot; class=&quot;lineNode&quot;&gt;&lt;div style=&quot;padding: 30px;&quot; class=&quot;rtcContent&quot;&gt;&lt;div style=&quot;&quot; class=&quot;lineNode&quot;&gt;&lt;span style=&quot;white-space: pre;&quot;&gt;&lt;font style=&quot;font-size: 12px;&quot;&gt;fcn_findEdge_findDrivenPathGrids&lt;/font&gt;&lt;/span&gt;&lt;/div&gt;&lt;/div&gt;&lt;/div&gt;&lt;/div&gt;" style="rounded=0;whiteSpace=wrap;html=1;fillColor=#66FF66;" vertex="1" parent="5aSi395ixU3ctmeISOfq-81">
          <mxGeometry x="640" y="210" width="280" height="80" as="geometry" />
        </mxCell>
        <mxCell id="5aSi395ixU3ctmeISOfq-106" value="Non-empty grids greater than required point density&amp;nbsp;" style="text;html=1;align=center;verticalAlign=middle;whiteSpace=wrap;rounded=0;" vertex="1" parent="5aSi395ixU3ctmeISOfq-81">
          <mxGeometry x="490" y="560" width="110" height="30" as="geometry" />
        </mxCell>
        <mxCell id="5aSi395ixU3ctmeISOfq-107" value="Non-empty grids with more than one scan line&amp;nbsp;" style="text;html=1;align=center;verticalAlign=middle;whiteSpace=wrap;rounded=0;" vertex="1" parent="5aSi395ixU3ctmeISOfq-81">
          <mxGeometry x="490" y="630" width="110" height="30" as="geometry" />
        </mxCell>
        <mxCell id="5aSi395ixU3ctmeISOfq-108" value="Non-empty grids with more than transverse span threshold" style="text;html=1;align=center;verticalAlign=middle;whiteSpace=wrap;rounded=0;" vertex="1" parent="5aSi395ixU3ctmeISOfq-81">
          <mxGeometry x="480" y="690" width="140" height="30" as="geometry" />
        </mxCell>
        <mxCell id="5aSi395ixU3ctmeISOfq-109" value="Original qualified grids" style="text;html=1;align=center;verticalAlign=middle;whiteSpace=wrap;rounded=0;" vertex="1" parent="5aSi395ixU3ctmeISOfq-81">
          <mxGeometry x="630" y="410" width="100" height="30" as="geometry" />
        </mxCell>
        <mxCell id="5aSi395ixU3ctmeISOfq-110" value="Current qualified grids" style="text;html=1;align=center;verticalAlign=middle;whiteSpace=wrap;rounded=0;" vertex="1" parent="5aSi395ixU3ctmeISOfq-81">
          <mxGeometry x="800" y="410" width="100" height="30" as="geometry" />
        </mxCell>
        <mxCell id="5aSi395ixU3ctmeISOfq-111" value="Grid centers of qualified grids" style="text;html=1;align=center;verticalAlign=middle;whiteSpace=wrap;rounded=0;" vertex="1" parent="5aSi395ixU3ctmeISOfq-81">
          <mxGeometry x="940" y="510" width="90" height="50" as="geometry" />
        </mxCell>
        <mxCell id="5aSi395ixU3ctmeISOfq-112" value="Unqualified grids" style="text;html=1;align=center;verticalAlign=middle;whiteSpace=wrap;rounded=0;" vertex="1" parent="5aSi395ixU3ctmeISOfq-81">
          <mxGeometry x="900" y="750" width="90" height="30" as="geometry" />
        </mxCell>
        <mxCell id="5aSi395ixU3ctmeISOfq-113" value="If either of the conditions fail, the non-empty grids are classified as UNQUALIFIED. If all the conditions pass, the non-empty grids are classified as QUALIFIED." style="text;html=1;align=center;verticalAlign=middle;whiteSpace=wrap;rounded=0;" vertex="1" parent="5aSi395ixU3ctmeISOfq-81">
          <mxGeometry x="640" y="660" width="260" height="80" as="geometry" />
        </mxCell>
        <mxCell id="5aSi395ixU3ctmeISOfq-114" value="Find the driven paths in the qualified grids" style="text;html=1;align=center;verticalAlign=middle;whiteSpace=wrap;rounded=0;" vertex="1" parent="5aSi395ixU3ctmeISOfq-81">
          <mxGeometry x="655" y="300" width="230" height="30" as="geometry" />
        </mxCell>
        <mxCell id="5aSi395ixU3ctmeISOfq-115" value="Learned" style="rounded=0;whiteSpace=wrap;html=1;" vertex="1" parent="5aSi395ixU3ctmeISOfq-81">
          <mxGeometry x="1000" y="50" width="160" height="80" as="geometry" />
        </mxCell>
        <mxCell id="5aSi395ixU3ctmeISOfq-116" value="Grids greater than zero points (non-empty grids)" style="text;html=1;align=center;verticalAlign=middle;whiteSpace=wrap;rounded=0;" vertex="1" parent="5aSi395ixU3ctmeISOfq-81">
          <mxGeometry x="70" y="860" width="180" height="30" as="geometry" />
        </mxCell>
        <mxCell id="5aSi395ixU3ctmeISOfq-117" value="Grid centers" style="text;html=1;align=center;verticalAlign=middle;whiteSpace=wrap;rounded=0;" vertex="1" parent="5aSi395ixU3ctmeISOfq-81">
          <mxGeometry x="300" y="860" width="75" height="30" as="geometry" />
        </mxCell>
        <mxCell id="5aSi395ixU3ctmeISOfq-118" value="Points of bounding box" style="text;html=1;align=center;verticalAlign=middle;whiteSpace=wrap;rounded=0;" vertex="1" parent="5aSi395ixU3ctmeISOfq-81">
          <mxGeometry x="560" y="180" width="70" height="30" as="geometry" />
        </mxCell>
        <mxCell id="5aSi395ixU3ctmeISOfq-119" value="Total points in each grid" style="text;html=1;align=center;verticalAlign=middle;whiteSpace=wrap;rounded=0;" vertex="1" parent="5aSi395ixU3ctmeISOfq-81">
          <mxGeometry x="470" y="210" width="75" height="30" as="geometry" />
        </mxCell>
        <mxCell id="5aSi395ixU3ctmeISOfq-120" value="Total points in each non-empty grid" style="text;html=1;align=center;verticalAlign=middle;whiteSpace=wrap;rounded=0;" vertex="1" parent="1">
          <mxGeometry x="2130" y="200" width="110" height="30" as="geometry" />
        </mxCell>
        <mxCell id="5aSi395ixU3ctmeISOfq-121" value="Total points in each driven path grid" style="text;html=1;align=center;verticalAlign=middle;whiteSpace=wrap;rounded=0;" vertex="1" parent="1">
          <mxGeometry x="2130" y="250" width="110" height="30" as="geometry" />
        </mxCell>
        <mxCell id="5aSi395ixU3ctmeISOfq-122" value="Total points in each grid" style="text;html=1;align=center;verticalAlign=middle;whiteSpace=wrap;rounded=0;" vertex="1" parent="1">
          <mxGeometry x="2140" y="532.5" width="75" height="30" as="geometry" />
        </mxCell>
        <mxCell id="5aSi395ixU3ctmeISOfq-123" value="Grid centers" style="text;html=1;align=center;verticalAlign=middle;whiteSpace=wrap;rounded=0;" vertex="1" parent="1">
          <mxGeometry x="2142.5" y="580" width="75" height="30" as="geometry" />
        </mxCell>
        <mxCell id="5aSi395ixU3ctmeISOfq-124" value="Grid indices" style="text;html=1;align=center;verticalAlign=middle;whiteSpace=wrap;rounded=0;" vertex="1" parent="1">
          <mxGeometry x="2140" y="430" width="75" height="10" as="geometry" />
        </mxCell>
        <mxCell id="5aSi395ixU3ctmeISOfq-125" value="Grid AABBs" style="text;html=1;align=center;verticalAlign=middle;whiteSpace=wrap;rounded=0;" vertex="1" parent="1">
          <mxGeometry x="2142.5" y="610" width="75" height="30" as="geometry" />
        </mxCell>
        <mxCell id="5aSi395ixU3ctmeISOfq-126" value="Original qualified grids" style="text;html=1;align=center;verticalAlign=middle;whiteSpace=wrap;rounded=0;" vertex="1" parent="1">
          <mxGeometry x="3530" y="600" width="100" height="30" as="geometry" />
        </mxCell>
        <mxCell id="5aSi395ixU3ctmeISOfq-127" value="Current qualified grids" style="text;html=1;align=center;verticalAlign=middle;whiteSpace=wrap;rounded=0;" vertex="1" parent="1">
          <mxGeometry x="3530" y="550" width="100" height="30" as="geometry" />
        </mxCell>
        <mxCell id="5aSi395ixU3ctmeISOfq-128" value="Current grid numbers of driven path" style="text;html=1;align=center;verticalAlign=middle;whiteSpace=wrap;rounded=0;" vertex="1" parent="1">
          <mxGeometry x="3535" y="240" width="100" height="30" as="geometry" />
        </mxCell>
        <mxCell id="5aSi395ixU3ctmeISOfq-129" value="Grid centers of qualified grids" style="text;html=1;align=center;verticalAlign=middle;whiteSpace=wrap;rounded=0;" vertex="1" parent="1">
          <mxGeometry x="3530" y="650" width="90" height="50" as="geometry" />
        </mxCell>
        <mxCell id="5aSi395ixU3ctmeISOfq-130" value="Grid centers of driven path grids" style="text;html=1;align=center;verticalAlign=middle;whiteSpace=wrap;rounded=0;" vertex="1" parent="1">
          <mxGeometry x="3540" y="280" width="90" height="50" as="geometry" />
        </mxCell>
        <mxCell id="5aSi395ixU3ctmeISOfq-131" value="Vehicle pose" style="text;html=1;align=center;verticalAlign=middle;whiteSpace=wrap;rounded=0;" vertex="1" parent="1">
          <mxGeometry x="860" y="240" width="75" height="30" as="geometry" />
        </mxCell>
        <mxCell id="5aSi395ixU3ctmeISOfq-132" style="edgeStyle=orthogonalEdgeStyle;rounded=0;orthogonalLoop=1;jettySize=auto;html=1;exitX=1;exitY=0;exitDx=0;exitDy=0;entryX=0.004;entryY=0.138;entryDx=0;entryDy=0;entryPerimeter=0;" edge="1" parent="1" source="5aSi395ixU3ctmeISOfq-4" target="5aSi395ixU3ctmeISOfq-31">
          <mxGeometry relative="1" as="geometry">
            <Array as="points">
              <mxPoint x="350" y="480" />
              <mxPoint x="350" y="360" />
              <mxPoint x="1320" y="360" />
              <mxPoint x="1320" y="491" />
            </Array>
          </mxGeometry>
        </mxCell>
        <mxCell id="5aSi395ixU3ctmeISOfq-133" value="Vehicle pose" style="text;html=1;align=center;verticalAlign=middle;whiteSpace=wrap;rounded=0;" vertex="1" parent="1">
          <mxGeometry x="1210" y="330" width="75" height="30" as="geometry" />
        </mxCell>
        <mxCell id="5aSi395ixU3ctmeISOfq-134" style="edgeStyle=orthogonalEdgeStyle;rounded=0;orthogonalLoop=1;jettySize=auto;html=1;exitX=1;exitY=1;exitDx=0;exitDy=0;entryX=0;entryY=0.875;entryDx=0;entryDy=0;entryPerimeter=0;" edge="1" parent="1" source="5aSi395ixU3ctmeISOfq-55" target="5aSi395ixU3ctmeISOfq-102">
          <mxGeometry relative="1" as="geometry">
            <Array as="points">
              <mxPoint x="2020" y="560" />
              <mxPoint x="2020" y="920" />
              <mxPoint x="2860" y="920" />
              <mxPoint x="2860" y="670" />
            </Array>
          </mxGeometry>
        </mxCell>
        <mxCell id="5aSi395ixU3ctmeISOfq-135" style="edgeStyle=orthogonalEdgeStyle;rounded=0;orthogonalLoop=1;jettySize=auto;html=1;exitX=1;exitY=0.25;exitDx=0;exitDy=0;entryX=0;entryY=0.375;entryDx=0;entryDy=0;entryPerimeter=0;" edge="1" parent="1" source="5aSi395ixU3ctmeISOfq-55" target="5aSi395ixU3ctmeISOfq-105">
          <mxGeometry relative="1" as="geometry">
            <Array as="points">
              <mxPoint x="2080" y="500" />
              <mxPoint x="2080" y="420" />
              <mxPoint x="2750" y="420" />
              <mxPoint x="2750" y="270" />
            </Array>
          </mxGeometry>
        </mxCell>
        <mxCell id="5aSi395ixU3ctmeISOfq-136" value="Total points in each grid" style="text;html=1;align=center;verticalAlign=middle;whiteSpace=wrap;rounded=0;" vertex="1" parent="1">
          <mxGeometry x="2140" y="382.5" width="75" height="30" as="geometry" />
        </mxCell>
        <mxCell id="5aSi395ixU3ctmeISOfq-137" style="edgeStyle=orthogonalEdgeStyle;rounded=0;orthogonalLoop=1;jettySize=auto;html=1;exitX=1;exitY=0.25;exitDx=0;exitDy=0;entryX=0;entryY=0.125;entryDx=0;entryDy=0;entryPerimeter=0;" edge="1" parent="1" source="5aSi395ixU3ctmeISOfq-37" target="5aSi395ixU3ctmeISOfq-105">
          <mxGeometry relative="1" as="geometry">
            <Array as="points">
              <mxPoint x="1420" y="220" />
              <mxPoint x="1420" y="150" />
              <mxPoint x="2800" y="150" />
              <mxPoint x="2800" y="250" />
            </Array>
          </mxGeometry>
        </mxCell>
        <mxCell id="5aSi395ixU3ctmeISOfq-338" style="edgeStyle=orthogonalEdgeStyle;rounded=0;orthogonalLoop=1;jettySize=auto;html=1;exitX=0;exitY=0.5;exitDx=0;exitDy=0;" edge="1" parent="1" source="5aSi395ixU3ctmeISOfq-139">
          <mxGeometry relative="1" as="geometry">
            <mxPoint x="1040" y="1960" as="targetPoint" />
            <Array as="points">
              <mxPoint x="-10" y="1035" />
              <mxPoint x="-10" y="2500" />
              <mxPoint x="1040" y="2500" />
              <mxPoint x="1040" y="1960" />
            </Array>
          </mxGeometry>
        </mxCell>
        <mxCell id="5aSi395ixU3ctmeISOfq-139" value="Grid indices cell array" style="text;html=1;align=center;verticalAlign=middle;whiteSpace=wrap;rounded=0;" vertex="1" parent="1">
          <mxGeometry x="2065" y="1020" width="75" height="30" as="geometry" />
        </mxCell>
        <mxCell id="5aSi395ixU3ctmeISOfq-340" style="edgeStyle=orthogonalEdgeStyle;rounded=0;orthogonalLoop=1;jettySize=auto;html=1;entryX=1;entryY=1;entryDx=0;entryDy=0;" edge="1" parent="1" source="5aSi395ixU3ctmeISOfq-140" target="5aSi395ixU3ctmeISOfq-232">
          <mxGeometry relative="1" as="geometry">
            <Array as="points">
              <mxPoint x="-30" y="1075" />
              <mxPoint x="-30" y="2540" />
              <mxPoint x="1070" y="2540" />
            </Array>
          </mxGeometry>
        </mxCell>
        <mxCell id="5aSi395ixU3ctmeISOfq-140" value="Grid centers" style="text;html=1;align=center;verticalAlign=middle;whiteSpace=wrap;rounded=0;" vertex="1" parent="1">
          <mxGeometry x="2065" y="1060" width="75" height="30" as="geometry" />
        </mxCell>
        <mxCell id="5aSi395ixU3ctmeISOfq-327" style="edgeStyle=orthogonalEdgeStyle;rounded=0;orthogonalLoop=1;jettySize=auto;html=1;exitX=0;exitY=0.5;exitDx=0;exitDy=0;" edge="1" parent="1" source="5aSi395ixU3ctmeISOfq-141">
          <mxGeometry relative="1" as="geometry">
            <mxPoint x="270" y="1824.2105263157894" as="targetPoint" />
            <Array as="points">
              <mxPoint x="140" y="1115" />
              <mxPoint x="140" y="1824" />
            </Array>
          </mxGeometry>
        </mxCell>
        <mxCell id="5aSi395ixU3ctmeISOfq-141" value="Grid AABBs" style="text;html=1;align=center;verticalAlign=middle;whiteSpace=wrap;rounded=0;" vertex="1" parent="1">
          <mxGeometry x="2067.5" y="1100" width="75" height="30" as="geometry" />
        </mxCell>
        <mxCell id="5aSi395ixU3ctmeISOfq-329" style="edgeStyle=orthogonalEdgeStyle;rounded=0;orthogonalLoop=1;jettySize=auto;html=1;exitX=0;exitY=0.5;exitDx=0;exitDy=0;" edge="1" parent="1" source="5aSi395ixU3ctmeISOfq-142">
          <mxGeometry relative="1" as="geometry">
            <mxPoint x="270" y="1781" as="targetPoint" />
            <Array as="points">
              <mxPoint x="150" y="1145" />
              <mxPoint x="150" y="1781" />
            </Array>
          </mxGeometry>
        </mxCell>
        <mxCell id="5aSi395ixU3ctmeISOfq-142" value="Grid indices" style="text;html=1;align=center;verticalAlign=middle;whiteSpace=wrap;rounded=0;" vertex="1" parent="1">
          <mxGeometry x="2067.5" y="1130" width="75" height="30" as="geometry" />
        </mxCell>
        <mxCell id="5aSi395ixU3ctmeISOfq-348" style="edgeStyle=orthogonalEdgeStyle;rounded=0;orthogonalLoop=1;jettySize=auto;html=1;exitX=1;exitY=0.5;exitDx=0;exitDy=0;entryX=0.31;entryY=0.015;entryDx=0;entryDy=0;entryPerimeter=0;" edge="1" parent="1" source="5aSi395ixU3ctmeISOfq-143" target="5aSi395ixU3ctmeISOfq-234">
          <mxGeometry relative="1" as="geometry">
            <mxPoint x="1450" y="1720" as="targetPoint" />
            <Array as="points">
              <mxPoint x="3440" y="1205" />
              <mxPoint x="3440" y="1600" />
              <mxPoint x="1500" y="1600" />
              <mxPoint x="1500" y="1720" />
            </Array>
          </mxGeometry>
        </mxCell>
        <mxCell id="5aSi395ixU3ctmeISOfq-143" value="Grid centers of qualified grids" style="text;html=1;align=center;verticalAlign=middle;whiteSpace=wrap;rounded=0;" vertex="1" parent="1">
          <mxGeometry x="3240" y="1180" width="90" height="50" as="geometry" />
        </mxCell>
        <mxCell id="5aSi395ixU3ctmeISOfq-351" style="edgeStyle=orthogonalEdgeStyle;rounded=0;orthogonalLoop=1;jettySize=auto;html=1;exitX=1;exitY=0.5;exitDx=0;exitDy=0;entryX=0.75;entryY=0;entryDx=0;entryDy=0;" edge="1" parent="1" source="5aSi395ixU3ctmeISOfq-144" target="5aSi395ixU3ctmeISOfq-234">
          <mxGeometry relative="1" as="geometry">
            <Array as="points">
              <mxPoint x="3350" y="1255" />
              <mxPoint x="3350" y="1600" />
              <mxPoint x="1660" y="1600" />
            </Array>
          </mxGeometry>
        </mxCell>
        <mxCell id="5aSi395ixU3ctmeISOfq-144" value="Grid centers of unqualified grids" style="text;html=1;align=center;verticalAlign=middle;whiteSpace=wrap;rounded=0;" vertex="1" parent="1">
          <mxGeometry x="3240" y="1230" width="90" height="50" as="geometry" />
        </mxCell>
        <mxCell id="5aSi395ixU3ctmeISOfq-357" style="edgeStyle=orthogonalEdgeStyle;rounded=0;orthogonalLoop=1;jettySize=auto;html=1;exitX=1;exitY=0;exitDx=0;exitDy=0;" edge="1" parent="1" source="5aSi395ixU3ctmeISOfq-146">
          <mxGeometry relative="1" as="geometry">
            <mxPoint x="3001" y="1960" as="targetPoint" />
            <Array as="points">
              <mxPoint x="3760" y="1160" />
              <mxPoint x="3760" y="2280" />
              <mxPoint x="3000" y="2280" />
            </Array>
          </mxGeometry>
        </mxCell>
        <mxCell id="5aSi395ixU3ctmeISOfq-146" value="Grid boundaries" style="text;html=1;align=center;verticalAlign=middle;whiteSpace=wrap;rounded=0;" vertex="1" parent="1">
          <mxGeometry x="2067.5" y="1160" width="75" height="30" as="geometry" />
        </mxCell>
        <mxCell id="5aSi395ixU3ctmeISOfq-231" style="edgeStyle=orthogonalEdgeStyle;rounded=0;orthogonalLoop=1;jettySize=auto;html=1;exitX=1;exitY=0.5;exitDx=0;exitDy=0;entryX=0;entryY=0.5;entryDx=0;entryDy=0;" edge="1" parent="1" source="5aSi395ixU3ctmeISOfq-232" target="5aSi395ixU3ctmeISOfq-270">
          <mxGeometry relative="1" as="geometry">
            <Array as="points">
              <mxPoint x="1160" y="1920" />
              <mxPoint x="1160" y="2080" />
            </Array>
          </mxGeometry>
        </mxCell>
        <mxCell id="5aSi395ixU3ctmeISOfq-232" value="&lt;div style=&quot;padding: 30px; text-align: start;&quot; class=&quot;rtcContent&quot;&gt;&lt;div style=&quot;font-family: Menlo, Monaco, Consolas, &amp;quot;Courier New&amp;quot;, monospace;&quot; class=&quot;lineNode&quot;&gt;&lt;span style=&quot;white-space: pre;&quot;&gt;&lt;font style=&quot;font-size: 12px;&quot;&gt;fcn_findEdge_classifyGridsAsDrivable&lt;/font&gt;&lt;/span&gt;&lt;/div&gt;&lt;/div&gt;" style="rounded=0;whiteSpace=wrap;html=1;fillColor=#66FF66;" vertex="1" parent="1">
          <mxGeometry x="790" y="1880" width="280" height="80" as="geometry" />
        </mxCell>
        <mxCell id="5aSi395ixU3ctmeISOfq-233" style="edgeStyle=orthogonalEdgeStyle;rounded=0;orthogonalLoop=1;jettySize=auto;html=1;exitX=1;exitY=0.5;exitDx=0;exitDy=0;entryX=0;entryY=0.5;entryDx=0;entryDy=0;" edge="1" parent="1" source="5aSi395ixU3ctmeISOfq-234" target="5aSi395ixU3ctmeISOfq-236">
          <mxGeometry relative="1" as="geometry" />
        </mxCell>
        <mxCell id="5aSi395ixU3ctmeISOfq-234" value="&lt;div style=&quot;padding: 30px; text-align: start;&quot; class=&quot;rtcContent&quot;&gt;&lt;div style=&quot;font-family: Menlo, Monaco, Consolas, &amp;quot;Courier New&amp;quot;, monospace;&quot; class=&quot;lineNode&quot;&gt;&lt;span style=&quot;white-space: pre;&quot;&gt;&lt;font style=&quot;font-size: 12px;&quot;&gt;fcn_findEdge_prepGridCentersForBoundaryDetection&lt;/font&gt;&lt;/span&gt;&lt;/div&gt;&lt;/div&gt;" style="rounded=0;whiteSpace=wrap;html=1;fillColor=#66FF66;" vertex="1" parent="1">
          <mxGeometry x="1390" y="1720" width="360" height="80" as="geometry" />
        </mxCell>
        <mxCell id="5aSi395ixU3ctmeISOfq-235" style="edgeStyle=orthogonalEdgeStyle;rounded=0;orthogonalLoop=1;jettySize=auto;html=1;exitX=1;exitY=0.5;exitDx=0;exitDy=0;entryX=0;entryY=0.25;entryDx=0;entryDy=0;" edge="1" parent="1" source="5aSi395ixU3ctmeISOfq-236" target="5aSi395ixU3ctmeISOfq-238">
          <mxGeometry relative="1" as="geometry" />
        </mxCell>
        <mxCell id="5aSi395ixU3ctmeISOfq-236" value="&lt;div style=&quot;padding: 30px; text-align: start;&quot; class=&quot;rtcContent&quot;&gt;&lt;div style=&quot;font-family: Menlo, Monaco, Consolas, &amp;quot;Courier New&amp;quot;, monospace;&quot; class=&quot;lineNode&quot;&gt;&lt;span style=&quot;white-space: pre;&quot;&gt;&lt;font style=&quot;font-size: 12px;&quot;&gt;fcn_findEdge_findBoundaryPoints&lt;/font&gt;&lt;/span&gt;&lt;/div&gt;&lt;/div&gt;" style="rounded=0;whiteSpace=wrap;html=1;fillColor=#66FF66;" vertex="1" parent="1">
          <mxGeometry x="1910" y="1717.5" width="240" height="82.5" as="geometry" />
        </mxCell>
        <mxCell id="5aSi395ixU3ctmeISOfq-237" style="edgeStyle=orthogonalEdgeStyle;rounded=0;orthogonalLoop=1;jettySize=auto;html=1;exitX=1;exitY=0.75;exitDx=0;exitDy=0;" edge="1" parent="1" source="5aSi395ixU3ctmeISOfq-238" target="5aSi395ixU3ctmeISOfq-275">
          <mxGeometry relative="1" as="geometry">
            <Array as="points">
              <mxPoint x="2590" y="1920" />
            </Array>
          </mxGeometry>
        </mxCell>
        <mxCell id="5aSi395ixU3ctmeISOfq-238" value="&lt;div style=&quot;padding: 30px; text-align: start;&quot; class=&quot;rtcContent&quot;&gt;&lt;div style=&quot;font-family: Menlo, Monaco, Consolas, &amp;quot;Courier New&amp;quot;, monospace;&quot; class=&quot;lineNode&quot;&gt;&lt;span style=&quot;white-space: pre;&quot;&gt;&lt;font style=&quot;font-size: 12px;&quot;&gt;fcn_findEdge_findTrueBoundaryPoints&lt;/font&gt;&lt;/span&gt;&lt;/div&gt;&lt;/div&gt;" style="rounded=0;whiteSpace=wrap;html=1;fillColor=#66FF66;" vertex="1" parent="1">
          <mxGeometry x="2310" y="1881.25" width="280" height="80" as="geometry" />
        </mxCell>
        <mxCell id="5aSi395ixU3ctmeISOfq-239" style="edgeStyle=orthogonalEdgeStyle;rounded=0;orthogonalLoop=1;jettySize=auto;html=1;exitX=1;exitY=0.25;exitDx=0;exitDy=0;" edge="1" parent="1" source="5aSi395ixU3ctmeISOfq-241">
          <mxGeometry relative="1" as="geometry">
            <mxPoint x="3570" y="1690" as="targetPoint" />
          </mxGeometry>
        </mxCell>
        <mxCell id="5aSi395ixU3ctmeISOfq-240" style="edgeStyle=orthogonalEdgeStyle;rounded=0;orthogonalLoop=1;jettySize=auto;html=1;exitX=1;exitY=0.75;exitDx=0;exitDy=0;" edge="1" parent="1" source="5aSi395ixU3ctmeISOfq-241">
          <mxGeometry relative="1" as="geometry">
            <mxPoint x="3570" y="2150" as="targetPoint" />
          </mxGeometry>
        </mxCell>
        <mxCell id="5aSi395ixU3ctmeISOfq-241" value="&lt;div style=&quot;padding: 30px; text-align: start;&quot; class=&quot;rtcContent&quot;&gt;&lt;div style=&quot;font-family: Menlo, Monaco, Consolas, &amp;quot;Courier New&amp;quot;, monospace;&quot; class=&quot;lineNode&quot;&gt;&lt;span style=&quot;white-space: pre;&quot;&gt;&lt;font style=&quot;font-size: 12px;&quot;&gt;fcn_findEdge_seperateLeftRightBoundaries&lt;/font&gt;&lt;/span&gt;&lt;/div&gt;&lt;/div&gt;" style="rounded=0;whiteSpace=wrap;html=1;fillColor=#66FF66;" vertex="1" parent="1">
          <mxGeometry x="3190" y="1880" width="320" height="80" as="geometry" />
        </mxCell>
        <mxCell id="5aSi395ixU3ctmeISOfq-242" value="standard deviation in z fit error &amp;lt; standard deviation threshold" style="text;html=1;align=center;verticalAlign=middle;whiteSpace=wrap;rounded=0;" vertex="1" parent="1">
          <mxGeometry x="280" y="1627.5" width="310" height="30" as="geometry" />
        </mxCell>
        <mxCell id="5aSi395ixU3ctmeISOfq-243" value="angle between unit normal vector and vertical &amp;lt; theta threshold" style="text;html=1;align=center;verticalAlign=middle;whiteSpace=wrap;rounded=0;" vertex="1" parent="1">
          <mxGeometry x="285" y="1857.5" width="310" height="30" as="geometry" />
        </mxCell>
        <mxCell id="5aSi395ixU3ctmeISOfq-244" value="Find the standard deviations of the z-fit errors for all qualified grids, and compare these standard deviations with those of the grids in the driven path to determine the suitable standard deviation threshold" style="text;html=1;align=center;verticalAlign=middle;whiteSpace=wrap;rounded=0;" vertex="1" parent="1">
          <mxGeometry x="300" y="1767.5" width="270" height="30" as="geometry" />
        </mxCell>
        <mxCell id="5aSi395ixU3ctmeISOfq-245" value="Find the angles between the unit normal vectors of the fitted planes and vertical ([0 0 1]) for all qualified grids, and compare these angles with those of the grids in the driven path to determine the suitable theta threshold" style="text;html=1;align=center;verticalAlign=middle;whiteSpace=wrap;rounded=0;" vertex="1" parent="1">
          <mxGeometry x="305" y="2017.5" width="270" height="30" as="geometry" />
        </mxCell>
        <mxCell id="5aSi395ixU3ctmeISOfq-246" value="Find the z-intercept of the fitted planes for all qualified grids, and compare these angles with those of the grids in the driven path to determine the suitable z-height threshold" style="text;html=1;align=center;verticalAlign=middle;whiteSpace=wrap;rounded=0;" vertex="1" parent="1">
          <mxGeometry x="305" y="2247.5" width="270" height="30" as="geometry" />
        </mxCell>
        <mxCell id="5aSi395ixU3ctmeISOfq-247" value="z-intercept of the fitted plane &amp;lt; z-height threshold" style="text;html=1;align=center;verticalAlign=middle;whiteSpace=wrap;rounded=0;" vertex="1" parent="1">
          <mxGeometry x="280" y="2107.5" width="310" height="30" as="geometry" />
        </mxCell>
        <mxCell id="5aSi395ixU3ctmeISOfq-248" style="edgeStyle=orthogonalEdgeStyle;rounded=0;orthogonalLoop=1;jettySize=auto;html=1;exitX=1;exitY=0.75;exitDx=0;exitDy=0;" edge="1" parent="1" source="5aSi395ixU3ctmeISOfq-250" target="5aSi395ixU3ctmeISOfq-232">
          <mxGeometry relative="1" as="geometry">
            <Array as="points">
              <mxPoint x="630" y="1920" />
            </Array>
          </mxGeometry>
        </mxCell>
        <mxCell id="5aSi395ixU3ctmeISOfq-249" style="edgeStyle=orthogonalEdgeStyle;rounded=0;orthogonalLoop=1;jettySize=auto;html=1;exitX=1;exitY=0.25;exitDx=0;exitDy=0;entryX=0;entryY=0.75;entryDx=0;entryDy=0;" edge="1" parent="1" source="5aSi395ixU3ctmeISOfq-250" target="5aSi395ixU3ctmeISOfq-263">
          <mxGeometry relative="1" as="geometry">
            <Array as="points">
              <mxPoint x="860" y="1750" />
              <mxPoint x="860" y="1550" />
            </Array>
          </mxGeometry>
        </mxCell>
        <mxCell id="5aSi395ixU3ctmeISOfq-250" value="Grid conditions" style="swimlane;whiteSpace=wrap;html=1;" vertex="1" parent="1">
          <mxGeometry x="270" y="1560" width="360" height="760" as="geometry" />
        </mxCell>
        <mxCell id="5aSi395ixU3ctmeISOfq-251" value="&lt;div style=&quot;padding: 30px; text-align: start;&quot; class=&quot;rtcContent&quot;&gt;&lt;div style=&quot;font-family: Menlo, Monaco, Consolas, &amp;quot;Courier New&amp;quot;, monospace;&quot; class=&quot;lineNode&quot;&gt;&lt;div style=&quot;padding: 30px;&quot; class=&quot;rtcContent&quot;&gt;&lt;div style=&quot;&quot; class=&quot;lineNode&quot;&gt;&lt;span style=&quot;white-space: pre;&quot;&gt;&lt;font style=&quot;font-size: 12px;&quot;&gt;fcn_findEdge_determineAngleDeviation&lt;/font&gt;&lt;/span&gt;&lt;/div&gt;&lt;div style=&quot;font-size: 13px;&quot; class=&quot;lineNode&quot;&gt;&lt;span style=&quot;white-space: pre; background-color: initial;&quot;&gt;&lt;br&gt;&lt;/span&gt;&lt;/div&gt;&lt;div style=&quot;&quot; class=&quot;lineNode&quot;&gt;&lt;span style=&quot;white-space: pre; background-color: initial;&quot;&gt;&lt;font style=&quot;font-size: 12px;&quot;&gt;fcn_findEdge_histogramAngleDeviation&lt;/font&gt;&lt;/span&gt;&lt;/div&gt;&lt;/div&gt;&lt;/div&gt;&lt;/div&gt;" style="rounded=0;whiteSpace=wrap;html=1;fillColor=#66FF66;" vertex="1" parent="5aSi395ixU3ctmeISOfq-250">
          <mxGeometry x="40" y="337.5" width="280" height="85" as="geometry" />
        </mxCell>
        <mxCell id="5aSi395ixU3ctmeISOfq-252" value="&lt;div style=&quot;padding: 30px; text-align: start;&quot; class=&quot;rtcContent&quot;&gt;&lt;div style=&quot;font-family: Menlo, Monaco, Consolas, &amp;quot;Courier New&amp;quot;, monospace;&quot; class=&quot;lineNode&quot;&gt;&lt;span style=&quot;white-space: pre;&quot;&gt;&lt;font style=&quot;font-size: 12px;&quot;&gt;fcn_findEdge_determineSTDInZError&lt;/font&gt;&lt;/span&gt;&lt;/div&gt;&lt;div style=&quot;font-size: 13px; font-family: Menlo, Monaco, Consolas, &amp;quot;Courier New&amp;quot;, monospace;&quot; class=&quot;lineNode&quot;&gt;&lt;span style=&quot;white-space: pre; background-color: initial;&quot;&gt;&lt;br&gt;&lt;/span&gt;&lt;/div&gt;&lt;div style=&quot;font-family: Menlo, Monaco, Consolas, &amp;quot;Courier New&amp;quot;, monospace;&quot; class=&quot;lineNode&quot;&gt;&lt;span style=&quot;white-space: pre; background-color: initial;&quot;&gt;&lt;font style=&quot;font-size: 12px;&quot;&gt;fcn_findEdge_histogramSTDinZError&lt;/font&gt;&lt;/span&gt;&lt;/div&gt;&lt;/div&gt;" style="rounded=0;whiteSpace=wrap;html=1;fillColor=#66FF66;" vertex="1" parent="5aSi395ixU3ctmeISOfq-250">
          <mxGeometry x="40" y="100" width="280" height="80" as="geometry" />
        </mxCell>
        <mxCell id="5aSi395ixU3ctmeISOfq-253" value="&lt;div style=&quot;padding: 30px; font-size: medium; text-align: start;&quot; class=&quot;rtcContent&quot;&gt;&lt;div style=&quot;font-size: 13px; font-family: Menlo, Monaco, Consolas, &amp;quot;Courier New&amp;quot;, monospace;&quot; class=&quot;lineNode&quot;&gt;&lt;div style=&quot;padding: 30px; font-size: medium;&quot; class=&quot;rtcContent&quot;&gt;&lt;div style=&quot;font-size: 13px;&quot; class=&quot;lineNode&quot;&gt;&lt;br&gt;&lt;/div&gt;&lt;/div&gt;&lt;/div&gt;&lt;/div&gt;" style="rounded=0;whiteSpace=wrap;html=1;fillColor=#FF9999;" vertex="1" parent="5aSi395ixU3ctmeISOfq-250">
          <mxGeometry x="40" y="580" width="280" height="85" as="geometry" />
        </mxCell>
        <mxCell id="5aSi395ixU3ctmeISOfq-254" value="" style="html=1;labelBackgroundColor=#ffffff;startArrow=none;startFill=0;startSize=6;endArrow=classic;endFill=1;endSize=6;jettySize=auto;orthogonalLoop=1;strokeWidth=1;dashed=1;fontSize=14;rounded=0;entryX=0.5;entryY=0;entryDx=0;entryDy=0;exitX=0;exitY=0.25;exitDx=0;exitDy=0;" edge="1" parent="1" source="5aSi395ixU3ctmeISOfq-263">
          <mxGeometry width="60" height="60" relative="1" as="geometry">
            <mxPoint x="530" y="1500" as="sourcePoint" />
            <mxPoint x="530" y="1560" as="targetPoint" />
            <Array as="points">
              <mxPoint x="530" y="1510" />
            </Array>
          </mxGeometry>
        </mxCell>
        <mxCell id="5aSi395ixU3ctmeISOfq-255" value="" style="html=1;labelBackgroundColor=#ffffff;startArrow=none;startFill=0;startSize=6;endArrow=classic;endFill=1;endSize=6;jettySize=auto;orthogonalLoop=1;strokeWidth=1;dashed=1;fontSize=14;rounded=0;entryX=0.5;entryY=0;entryDx=0;entryDy=0;exitX=0;exitY=0.25;exitDx=0;exitDy=0;" edge="1" parent="1" source="5aSi395ixU3ctmeISOfq-263">
          <mxGeometry width="60" height="60" relative="1" as="geometry">
            <mxPoint x="610" y="1500" as="sourcePoint" />
            <mxPoint x="610" y="1560" as="targetPoint" />
            <Array as="points">
              <mxPoint x="610" y="1510" />
            </Array>
          </mxGeometry>
        </mxCell>
        <mxCell id="5aSi395ixU3ctmeISOfq-257" value="STD threshold" style="text;html=1;align=center;verticalAlign=middle;whiteSpace=wrap;rounded=0;" vertex="1" parent="1">
          <mxGeometry x="680" y="1880" width="60" height="30" as="geometry" />
        </mxCell>
        <mxCell id="5aSi395ixU3ctmeISOfq-258" value="Theta threshold" style="text;html=1;align=center;verticalAlign=middle;whiteSpace=wrap;rounded=0;" vertex="1" parent="1">
          <mxGeometry x="680" y="1840" width="60" height="30" as="geometry" />
        </mxCell>
        <mxCell id="5aSi395ixU3ctmeISOfq-259" value="&lt;font style=&quot;font-size: 36px;&quot;&gt;Grid Voting&lt;/font&gt;" style="swimlane;whiteSpace=wrap;html=1;startSize=40;" vertex="1" parent="1">
          <mxGeometry x="230" y="1430" width="960" height="930" as="geometry" />
        </mxCell>
        <mxCell id="5aSi395ixU3ctmeISOfq-260" value="Grid size" style="text;html=1;align=center;verticalAlign=middle;whiteSpace=wrap;rounded=0;" vertex="1" parent="5aSi395ixU3ctmeISOfq-259">
          <mxGeometry x="30" y="40" width="60" height="30" as="geometry" />
        </mxCell>
        <mxCell id="5aSi395ixU3ctmeISOfq-261" value="STD threshold" style="text;html=1;align=center;verticalAlign=middle;whiteSpace=wrap;rounded=0;" vertex="1" parent="5aSi395ixU3ctmeISOfq-259">
          <mxGeometry x="270" y="50" width="60" height="30" as="geometry" />
        </mxCell>
        <mxCell id="5aSi395ixU3ctmeISOfq-262" value="Theta threshold" style="text;html=1;align=center;verticalAlign=middle;whiteSpace=wrap;rounded=0;" vertex="1" parent="5aSi395ixU3ctmeISOfq-259">
          <mxGeometry x="350" y="50" width="60" height="30" as="geometry" />
        </mxCell>
        <mxCell id="5aSi395ixU3ctmeISOfq-263" value="Learned" style="rounded=0;whiteSpace=wrap;html=1;" vertex="1" parent="5aSi395ixU3ctmeISOfq-259">
          <mxGeometry x="690" y="60" width="160" height="80" as="geometry" />
        </mxCell>
        <mxCell id="5aSi395ixU3ctmeISOfq-264" value="If all conditions pass, DRIVABLE&lt;div&gt;If all conditions fail, NON_DRIVABLE&lt;/div&gt;&lt;div&gt;If only a few fail, UNCERTAIN&lt;/div&gt;" style="text;html=1;align=center;verticalAlign=middle;whiteSpace=wrap;rounded=0;" vertex="1" parent="5aSi395ixU3ctmeISOfq-259">
          <mxGeometry x="590" y="550" width="210" height="30" as="geometry" />
        </mxCell>
        <mxCell id="5aSi395ixU3ctmeISOfq-265" value="" style="html=1;labelBackgroundColor=#ffffff;startArrow=none;startFill=0;startSize=6;endArrow=classic;endFill=1;endSize=6;jettySize=auto;orthogonalLoop=1;strokeWidth=1;dashed=1;fontSize=14;rounded=0;entryX=0.5;entryY=0;entryDx=0;entryDy=0;" edge="1" parent="5aSi395ixU3ctmeISOfq-259">
          <mxGeometry width="60" height="60" relative="1" as="geometry">
            <mxPoint x="59.5" y="70" as="sourcePoint" />
            <mxPoint x="59.5" y="130" as="targetPoint" />
          </mxGeometry>
        </mxCell>
        <mxCell id="5aSi395ixU3ctmeISOfq-266" value="LiDAR ENU" style="text;html=1;align=center;verticalAlign=middle;whiteSpace=wrap;rounded=0;" vertex="1" parent="5aSi395ixU3ctmeISOfq-259">
          <mxGeometry x="480" y="630" width="60" height="30" as="geometry" />
        </mxCell>
        <mxCell id="5aSi395ixU3ctmeISOfq-267" value="Grid indices cell array" style="text;html=1;align=center;verticalAlign=middle;resizable=0;points=[];autosize=1;strokeColor=none;fillColor=none;rotation=0;" vertex="1" parent="5aSi395ixU3ctmeISOfq-259">
          <mxGeometry x="670" y="640" width="140" height="30" as="geometry" />
        </mxCell>
        <mxCell id="5aSi395ixU3ctmeISOfq-268" value="Grid centers" style="text;html=1;align=center;verticalAlign=middle;whiteSpace=wrap;rounded=0;" vertex="1" parent="5aSi395ixU3ctmeISOfq-259">
          <mxGeometry x="840" y="640" width="60" height="30" as="geometry" />
        </mxCell>
        <mxCell id="5aSi395ixU3ctmeISOfq-256" value="Original qualified grids" style="text;html=1;align=center;verticalAlign=middle;whiteSpace=wrap;rounded=0;" vertex="1" parent="5aSi395ixU3ctmeISOfq-259">
          <mxGeometry x="440" y="520" width="100" height="30" as="geometry" />
        </mxCell>
        <mxCell id="5aSi395ixU3ctmeISOfq-269" style="edgeStyle=orthogonalEdgeStyle;rounded=0;orthogonalLoop=1;jettySize=auto;html=1;exitX=1;exitY=0.5;exitDx=0;exitDy=0;entryX=0;entryY=0.5;entryDx=0;entryDy=0;" edge="1" parent="1" source="5aSi395ixU3ctmeISOfq-270" target="5aSi395ixU3ctmeISOfq-277">
          <mxGeometry relative="1" as="geometry" />
        </mxCell>
        <mxCell id="5aSi395ixU3ctmeISOfq-270" value="&lt;div style=&quot;padding: 30px; text-align: start;&quot; class=&quot;rtcContent&quot;&gt;&lt;div style=&quot;font-family: Menlo, Monaco, Consolas, &amp;quot;Courier New&amp;quot;, monospace;&quot; class=&quot;lineNode&quot;&gt;&lt;span style=&quot;white-space: pre;&quot;&gt;&lt;font style=&quot;font-size: 12px;&quot;&gt;fcn_findEdge_prepGridCentersForBoundaryDetection&lt;/font&gt;&lt;/span&gt;&lt;/div&gt;&lt;/div&gt;" style="rounded=0;whiteSpace=wrap;html=1;fillColor=#66FF66;" vertex="1" parent="1">
          <mxGeometry x="1390" y="2040" width="360" height="80" as="geometry" />
        </mxCell>
        <mxCell id="5aSi395ixU3ctmeISOfq-271" value="" style="html=1;labelBackgroundColor=#ffffff;startArrow=none;startFill=0;startSize=6;endArrow=classic;endFill=1;endSize=6;jettySize=auto;orthogonalLoop=1;strokeWidth=1;dashed=1;fontSize=14;rounded=0;entryX=0.5;entryY=0;entryDx=0;entryDy=0;" edge="1" parent="1">
          <mxGeometry width="60" height="60" relative="1" as="geometry">
            <mxPoint x="2029.2299999999996" y="1655" as="sourcePoint" />
            <mxPoint x="2029.2299999999996" y="1715" as="targetPoint" />
          </mxGeometry>
        </mxCell>
        <mxCell id="5aSi395ixU3ctmeISOfq-272" value="Grid size" style="text;html=1;align=center;verticalAlign=middle;whiteSpace=wrap;rounded=0;" vertex="1" parent="1">
          <mxGeometry x="2000" y="1625" width="60" height="30" as="geometry" />
        </mxCell>
        <mxCell id="5aSi395ixU3ctmeISOfq-273" value="X, Y, &amp;amp; Z coordinates of Grid centers of qualified and unqualified grids" style="text;html=1;align=center;verticalAlign=middle;whiteSpace=wrap;rounded=0;" vertex="1" parent="1">
          <mxGeometry x="1760" y="1690" width="140" height="90" as="geometry" />
        </mxCell>
        <mxCell id="5aSi395ixU3ctmeISOfq-274" style="edgeStyle=orthogonalEdgeStyle;rounded=0;orthogonalLoop=1;jettySize=auto;html=1;exitX=1;exitY=0.5;exitDx=0;exitDy=0;entryX=0;entryY=0.5;entryDx=0;entryDy=0;" edge="1" parent="1" source="5aSi395ixU3ctmeISOfq-275" target="5aSi395ixU3ctmeISOfq-241">
          <mxGeometry relative="1" as="geometry" />
        </mxCell>
        <mxCell id="5aSi395ixU3ctmeISOfq-275" value="&lt;div style=&quot;padding: 30px; text-align: start;&quot; class=&quot;rtcContent&quot;&gt;&lt;div style=&quot;font-family: Menlo, Monaco, Consolas, &amp;quot;Courier New&amp;quot;, monospace;&quot; class=&quot;lineNode&quot;&gt;&lt;span style=&quot;white-space: pre;&quot;&gt;&lt;font style=&quot;font-size: 12px;&quot;&gt;fcn_findEdge_findNearestBoundaryPoints&lt;/font&gt;&lt;/span&gt;&lt;/div&gt;&lt;/div&gt;" style="rounded=0;whiteSpace=wrap;html=1;fillColor=#66FF66;" vertex="1" parent="1">
          <mxGeometry x="2750" y="1880" width="280" height="80" as="geometry" />
        </mxCell>
        <mxCell id="5aSi395ixU3ctmeISOfq-276" style="edgeStyle=orthogonalEdgeStyle;rounded=0;orthogonalLoop=1;jettySize=auto;html=1;exitX=1;exitY=0.5;exitDx=0;exitDy=0;entryX=0;entryY=0.75;entryDx=0;entryDy=0;" edge="1" parent="1" source="5aSi395ixU3ctmeISOfq-277" target="5aSi395ixU3ctmeISOfq-238">
          <mxGeometry relative="1" as="geometry" />
        </mxCell>
        <mxCell id="5aSi395ixU3ctmeISOfq-277" value="&lt;div style=&quot;padding: 30px; text-align: start;&quot; class=&quot;rtcContent&quot;&gt;&lt;div style=&quot;font-family: Menlo, Monaco, Consolas, &amp;quot;Courier New&amp;quot;, monospace;&quot; class=&quot;lineNode&quot;&gt;&lt;span style=&quot;white-space: pre;&quot;&gt;&lt;font style=&quot;font-size: 12px;&quot;&gt;fcn_findEdge_findBoundaryPoints&lt;/font&gt;&lt;/span&gt;&lt;/div&gt;&lt;/div&gt;" style="rounded=0;whiteSpace=wrap;html=1;fillColor=#66FF66;" vertex="1" parent="1">
          <mxGeometry x="1910" y="2040" width="240" height="82.5" as="geometry" />
        </mxCell>
        <mxCell id="5aSi395ixU3ctmeISOfq-278" value="X, Y, &amp;amp; Z coordinates of Grid centers of drivable and non-drivable grids" style="text;html=1;align=center;verticalAlign=middle;whiteSpace=wrap;rounded=0;" vertex="1" parent="1">
          <mxGeometry x="1760" y="2010" width="140" height="90" as="geometry" />
        </mxCell>
        <mxCell id="5aSi395ixU3ctmeISOfq-279" value="" style="html=1;labelBackgroundColor=#ffffff;startArrow=none;startFill=0;startSize=6;endArrow=classic;endFill=1;endSize=6;jettySize=auto;orthogonalLoop=1;strokeWidth=1;dashed=1;fontSize=14;rounded=0;entryX=0.5;entryY=0;entryDx=0;entryDy=0;" edge="1" parent="1">
          <mxGeometry width="60" height="60" relative="1" as="geometry">
            <mxPoint x="2029.2299999999996" y="1980" as="sourcePoint" />
            <mxPoint x="2029.2299999999996" y="2040" as="targetPoint" />
          </mxGeometry>
        </mxCell>
        <mxCell id="5aSi395ixU3ctmeISOfq-280" value="Grid size" style="text;html=1;align=center;verticalAlign=middle;whiteSpace=wrap;rounded=0;" vertex="1" parent="1">
          <mxGeometry x="2000" y="1940" width="60" height="30" as="geometry" />
        </mxCell>
        <mxCell id="5aSi395ixU3ctmeISOfq-281" value="Grid centers of drivable grids" style="text;html=1;align=center;verticalAlign=middle;whiteSpace=wrap;rounded=0;" vertex="1" parent="1">
          <mxGeometry x="1205" y="2040" width="80" height="30" as="geometry" />
        </mxCell>
        <mxCell id="5aSi395ixU3ctmeISOfq-282" value="Grid centers of non-drivable grids" style="text;html=1;align=center;verticalAlign=middle;whiteSpace=wrap;rounded=0;" vertex="1" parent="1">
          <mxGeometry x="1202.5" y="2092.5" width="90" height="30" as="geometry" />
        </mxCell>
        <mxCell id="5aSi395ixU3ctmeISOfq-283" value="True boundary points" style="text;html=1;align=center;verticalAlign=middle;whiteSpace=wrap;rounded=0;" vertex="1" parent="1">
          <mxGeometry x="2630" y="1881.25" width="80" height="30" as="geometry" />
        </mxCell>
        <mxCell id="5aSi395ixU3ctmeISOfq-284" value="" style="html=1;labelBackgroundColor=#ffffff;startArrow=none;startFill=0;startSize=6;endArrow=classic;endFill=1;endSize=6;jettySize=auto;orthogonalLoop=1;strokeWidth=1;dashed=1;fontSize=14;rounded=0;entryX=0.5;entryY=0;entryDx=0;entryDy=0;" edge="1" parent="1">
          <mxGeometry width="60" height="60" relative="1" as="geometry">
            <mxPoint x="2889.2299999999996" y="1820" as="sourcePoint" />
            <mxPoint x="2889.2299999999996" y="1880" as="targetPoint" />
          </mxGeometry>
        </mxCell>
        <mxCell id="5aSi395ixU3ctmeISOfq-285" value="Grid size" style="text;html=1;align=center;verticalAlign=middle;whiteSpace=wrap;rounded=0;" vertex="1" parent="1">
          <mxGeometry x="2845" y="1790" width="80" height="30" as="geometry" />
        </mxCell>
        <mxCell id="5aSi395ixU3ctmeISOfq-286" value="Nearest boundary points" style="text;html=1;align=center;verticalAlign=middle;whiteSpace=wrap;rounded=0;" vertex="1" parent="1">
          <mxGeometry x="3060" y="1881.25" width="90" height="30" as="geometry" />
        </mxCell>
        <mxCell id="5aSi395ixU3ctmeISOfq-287" value="" style="html=1;labelBackgroundColor=#ffffff;startArrow=none;startFill=0;startSize=6;endArrow=classic;endFill=1;endSize=6;jettySize=auto;orthogonalLoop=1;strokeWidth=1;dashed=1;fontSize=14;rounded=0;entryX=0.5;entryY=0;entryDx=0;entryDy=0;" edge="1" parent="1">
          <mxGeometry width="60" height="60" relative="1" as="geometry">
            <mxPoint x="3290" y="1821.25" as="sourcePoint" />
            <mxPoint x="3290" y="1881.25" as="targetPoint" />
          </mxGeometry>
        </mxCell>
        <mxCell id="5aSi395ixU3ctmeISOfq-288" value="" style="html=1;labelBackgroundColor=#ffffff;startArrow=none;startFill=0;startSize=6;endArrow=classic;endFill=1;endSize=6;jettySize=auto;orthogonalLoop=1;strokeWidth=1;dashed=1;fontSize=14;rounded=0;entryX=0.5;entryY=0;entryDx=0;entryDy=0;" edge="1" parent="1">
          <mxGeometry width="60" height="60" relative="1" as="geometry">
            <mxPoint x="3490" y="1821.25" as="sourcePoint" />
            <mxPoint x="3490" y="1881.25" as="targetPoint" />
          </mxGeometry>
        </mxCell>
        <mxCell id="5aSi395ixU3ctmeISOfq-289" value="" style="html=1;labelBackgroundColor=#ffffff;startArrow=none;startFill=0;startSize=6;endArrow=classic;endFill=1;endSize=6;jettySize=auto;orthogonalLoop=1;strokeWidth=1;dashed=1;fontSize=14;rounded=0;entryX=0.5;entryY=0;entryDx=0;entryDy=0;" edge="1" parent="1">
          <mxGeometry width="60" height="60" relative="1" as="geometry">
            <mxPoint x="3410" y="1820" as="sourcePoint" />
            <mxPoint x="3410" y="1880" as="targetPoint" />
          </mxGeometry>
        </mxCell>
        <mxCell id="5aSi395ixU3ctmeISOfq-290" value="Grid size" style="text;html=1;align=center;verticalAlign=middle;whiteSpace=wrap;rounded=0;" vertex="1" parent="1">
          <mxGeometry x="3370" y="1790" width="80" height="30" as="geometry" />
        </mxCell>
        <mxCell id="5aSi395ixU3ctmeISOfq-291" value="" style="html=1;labelBackgroundColor=#ffffff;startArrow=none;startFill=0;startSize=6;endArrow=classic;endFill=1;endSize=6;jettySize=auto;orthogonalLoop=1;strokeWidth=1;dashed=1;fontSize=14;rounded=0;entryX=0.5;entryY=0;entryDx=0;entryDy=0;" edge="1" parent="1">
          <mxGeometry width="60" height="60" relative="1" as="geometry">
            <mxPoint x="3350" y="1820" as="sourcePoint" />
            <mxPoint x="3350" y="1880" as="targetPoint" />
          </mxGeometry>
        </mxCell>
        <mxCell id="5aSi395ixU3ctmeISOfq-292" value="Start scan line" style="text;html=1;align=center;verticalAlign=middle;whiteSpace=wrap;rounded=0;" vertex="1" parent="1">
          <mxGeometry x="3260" y="1790" width="60" height="30" as="geometry" />
        </mxCell>
        <mxCell id="5aSi395ixU3ctmeISOfq-293" value="End scan line" style="text;html=1;align=center;verticalAlign=middle;whiteSpace=wrap;rounded=0;" vertex="1" parent="1">
          <mxGeometry x="3320" y="1790" width="60" height="30" as="geometry" />
        </mxCell>
        <mxCell id="5aSi395ixU3ctmeISOfq-294" value="Transverse shift" style="text;html=1;align=center;verticalAlign=middle;whiteSpace=wrap;rounded=0;" vertex="1" parent="1">
          <mxGeometry x="3460" y="1790" width="60" height="30" as="geometry" />
        </mxCell>
        <mxCell id="5aSi395ixU3ctmeISOfq-295" value="Right boundaries" style="text;html=1;align=center;verticalAlign=middle;whiteSpace=wrap;rounded=0;" vertex="1" parent="1">
          <mxGeometry x="3540" y="1650" width="60" height="30" as="geometry" />
        </mxCell>
        <mxCell id="5aSi395ixU3ctmeISOfq-296" value="Left boundaries" style="text;html=1;align=center;verticalAlign=middle;whiteSpace=wrap;rounded=0;" vertex="1" parent="1">
          <mxGeometry x="3540" y="2160" width="60" height="30" as="geometry" />
        </mxCell>
        <mxCell id="5aSi395ixU3ctmeISOfq-297" value="&lt;font style=&quot;font-size: 36px;&quot;&gt;Post Processing&lt;/font&gt;" style="swimlane;whiteSpace=wrap;html=1;startSize=40;" vertex="1" parent="1">
          <mxGeometry x="1310" y="1430" width="2320" height="930" as="geometry" />
        </mxCell>
        <mxCell id="5aSi395ixU3ctmeISOfq-298" value="Find the boundary points of qualified and unqualified grids" style="text;html=1;align=center;verticalAlign=middle;whiteSpace=wrap;rounded=0;" vertex="1" parent="5aSi395ixU3ctmeISOfq-297">
          <mxGeometry x="630" y="380" width="200" height="30" as="geometry" />
        </mxCell>
        <mxCell id="5aSi395ixU3ctmeISOfq-299" value="Find the boundary points of drivable and non-drivable grids" style="text;html=1;align=center;verticalAlign=middle;whiteSpace=wrap;rounded=0;" vertex="1" parent="5aSi395ixU3ctmeISOfq-297">
          <mxGeometry x="640" y="700" width="180" height="30" as="geometry" />
        </mxCell>
        <mxCell id="5aSi395ixU3ctmeISOfq-300" value="Prepare the grid centers of qualified and unqualified for boundary detection" style="text;html=1;align=center;verticalAlign=middle;whiteSpace=wrap;rounded=0;" vertex="1" parent="5aSi395ixU3ctmeISOfq-297">
          <mxGeometry x="150" y="380" width="250" height="30" as="geometry" />
        </mxCell>
        <mxCell id="5aSi395ixU3ctmeISOfq-301" value="Prepare the grid centers of drivable and non-drivable for boundary detection" style="text;html=1;align=center;verticalAlign=middle;whiteSpace=wrap;rounded=0;" vertex="1" parent="5aSi395ixU3ctmeISOfq-297">
          <mxGeometry x="130" y="700" width="260" height="30" as="geometry" />
        </mxCell>
        <mxCell id="5aSi395ixU3ctmeISOfq-302" value="Boundary points of drivable and non-drivable grids" style="text;html=1;align=center;verticalAlign=middle;whiteSpace=wrap;rounded=0;" vertex="1" parent="5aSi395ixU3ctmeISOfq-297">
          <mxGeometry x="910" y="610" width="130" height="30" as="geometry" />
        </mxCell>
        <mxCell id="5aSi395ixU3ctmeISOfq-303" value="Boundary points of qualified and unqualified grids" style="text;html=1;align=center;verticalAlign=middle;whiteSpace=wrap;rounded=0;" vertex="1" parent="5aSi395ixU3ctmeISOfq-297">
          <mxGeometry x="910" y="340" width="130" height="30" as="geometry" />
        </mxCell>
        <mxCell id="5aSi395ixU3ctmeISOfq-304" value="Find the true boundary points by removing the boundary points of qualified and unqualified from drivable and non-drivable boundary points" style="text;html=1;align=center;verticalAlign=middle;whiteSpace=wrap;rounded=0;" vertex="1" parent="5aSi395ixU3ctmeISOfq-297">
          <mxGeometry x="1020" y="550" width="250" height="30" as="geometry" />
        </mxCell>
        <mxCell id="5aSi395ixU3ctmeISOfq-305" value="Find the nearest boundary points to the driven path&amp;nbsp;" style="text;html=1;align=center;verticalAlign=middle;whiteSpace=wrap;rounded=0;" vertex="1" parent="5aSi395ixU3ctmeISOfq-297">
          <mxGeometry x="1480" y="540" width="170" height="30" as="geometry" />
        </mxCell>
        <mxCell id="5aSi395ixU3ctmeISOfq-306" value="Separate the left and right boundaries from the nearest boundaries" style="text;html=1;align=center;verticalAlign=middle;whiteSpace=wrap;rounded=0;" vertex="1" parent="5aSi395ixU3ctmeISOfq-297">
          <mxGeometry x="1940" y="540" width="190" height="30" as="geometry" />
        </mxCell>
        <mxCell id="5aSi395ixU3ctmeISOfq-307" value="Grid centers of qualified grids" style="text;html=1;align=center;verticalAlign=middle;whiteSpace=wrap;rounded=0;" vertex="1" parent="5aSi395ixU3ctmeISOfq-297">
          <mxGeometry x="90" y="220" width="90" height="30" as="geometry" />
        </mxCell>
        <mxCell id="5aSi395ixU3ctmeISOfq-308" value="Grid centers of unqualified grids" style="text;html=1;align=center;verticalAlign=middle;whiteSpace=wrap;rounded=0;" vertex="1" parent="5aSi395ixU3ctmeISOfq-297">
          <mxGeometry x="250" y="220" width="90" height="30" as="geometry" />
        </mxCell>
        <mxCell id="5aSi395ixU3ctmeISOfq-309" value="Grid centers of driven path" style="text;html=1;align=center;verticalAlign=middle;whiteSpace=wrap;rounded=0;" vertex="1" parent="5aSi395ixU3ctmeISOfq-297">
          <mxGeometry x="1410" y="320" width="80" height="30" as="geometry" />
        </mxCell>
        <mxCell id="5aSi395ixU3ctmeISOfq-310" value="Vehicle Pose" style="text;html=1;align=center;verticalAlign=middle;whiteSpace=wrap;rounded=0;" vertex="1" parent="5aSi395ixU3ctmeISOfq-297">
          <mxGeometry x="1860" y="560" width="60" height="30" as="geometry" />
        </mxCell>
        <mxCell id="5aSi395ixU3ctmeISOfq-311" value="Grid boundaries" style="text;html=1;align=center;verticalAlign=middle;whiteSpace=wrap;rounded=0;" vertex="1" parent="5aSi395ixU3ctmeISOfq-297">
          <mxGeometry x="1690" y="570" width="80" height="30" as="geometry" />
        </mxCell>
        <mxCell id="5aSi395ixU3ctmeISOfq-314" value="Grid indices" style="text;html=1;align=center;verticalAlign=middle;whiteSpace=wrap;rounded=0;" vertex="1" parent="1">
          <mxGeometry x="152.5" y="1745" width="75" height="30" as="geometry" />
        </mxCell>
        <mxCell id="5aSi395ixU3ctmeISOfq-100" style="edgeStyle=orthogonalEdgeStyle;rounded=0;orthogonalLoop=1;jettySize=auto;html=1;exitX=1;exitY=0.5;exitDx=0;exitDy=0;entryX=0;entryY=0.75;entryDx=0;entryDy=0;" edge="1" parent="1" source="5aSi395ixU3ctmeISOfq-102" target="5aSi395ixU3ctmeISOfq-250">
          <mxGeometry relative="1" as="geometry">
            <mxPoint x="3780" y="1350" as="targetPoint" />
            <Array as="points">
              <mxPoint x="3640" y="640" />
              <mxPoint x="3640" y="970" />
              <mxPoint x="70" y="970" />
              <mxPoint x="70" y="2130" />
            </Array>
          </mxGeometry>
        </mxCell>
        <mxCell id="5aSi395ixU3ctmeISOfq-104" style="edgeStyle=orthogonalEdgeStyle;rounded=0;orthogonalLoop=1;jettySize=auto;html=1;exitX=1;exitY=0.5;exitDx=0;exitDy=0;" edge="1" parent="1" source="5aSi395ixU3ctmeISOfq-105">
          <mxGeometry relative="1" as="geometry">
            <mxPoint x="270" y="1980" as="targetPoint" />
            <Array as="points">
              <mxPoint x="3680" y="280" />
              <mxPoint x="3680" y="980" />
              <mxPoint x="100" y="980" />
              <mxPoint x="100" y="1980" />
              <mxPoint x="270" y="1980" />
            </Array>
          </mxGeometry>
        </mxCell>
        <mxCell id="5aSi395ixU3ctmeISOfq-315" value="Current grid numbers of driven path" style="text;html=1;align=center;verticalAlign=middle;whiteSpace=wrap;rounded=0;" vertex="1" parent="1">
          <mxGeometry x="120" y="1940" width="100" height="30" as="geometry" />
        </mxCell>
        <mxCell id="5aSi395ixU3ctmeISOfq-316" value="Grid centers of driven path grids" style="text;html=1;align=center;verticalAlign=middle;whiteSpace=wrap;rounded=0;" vertex="1" parent="1">
          <mxGeometry x="125" y="1980" width="90" height="50" as="geometry" />
        </mxCell>
        <mxCell id="5aSi395ixU3ctmeISOfq-317" value="Current qualified grids" style="text;html=1;align=center;verticalAlign=middle;whiteSpace=wrap;rounded=0;" vertex="1" parent="1">
          <mxGeometry x="115" y="2040" width="100" height="30" as="geometry" />
        </mxCell>
        <mxCell id="5aSi395ixU3ctmeISOfq-318" value="Original qualified grids" style="text;html=1;align=center;verticalAlign=middle;whiteSpace=wrap;rounded=0;" vertex="1" parent="1">
          <mxGeometry x="115" y="2090" width="100" height="30" as="geometry" />
        </mxCell>
        <mxCell id="5aSi395ixU3ctmeISOfq-319" value="Grid centers of qualified grids" style="text;html=1;align=center;verticalAlign=middle;whiteSpace=wrap;rounded=0;" vertex="1" parent="1">
          <mxGeometry x="120" y="2137.5" width="90" height="50" as="geometry" />
        </mxCell>
        <mxCell id="5aSi395ixU3ctmeISOfq-321" value="LiDAR ENU" style="text;html=1;align=center;verticalAlign=middle;whiteSpace=wrap;rounded=0;" vertex="1" parent="1">
          <mxGeometry x="140" y="1850" width="100" height="30" as="geometry" />
        </mxCell>
        <mxCell id="5aSi395ixU3ctmeISOfq-328" value="Grid AABBs" style="text;html=1;align=center;verticalAlign=middle;whiteSpace=wrap;rounded=0;" vertex="1" parent="1">
          <mxGeometry x="152.5" y="1790" width="75" height="30" as="geometry" />
        </mxCell>
        <mxCell id="5aSi395ixU3ctmeISOfq-337" style="edgeStyle=orthogonalEdgeStyle;rounded=0;orthogonalLoop=1;jettySize=auto;html=1;exitX=1;exitY=0.75;exitDx=0;exitDy=0;entryX=0;entryY=0.75;entryDx=0;entryDy=0;" edge="1" parent="1" source="5aSi395ixU3ctmeISOfq-102" target="5aSi395ixU3ctmeISOfq-232">
          <mxGeometry relative="1" as="geometry">
            <Array as="points">
              <mxPoint x="3230" y="660" />
              <mxPoint x="3230" y="1280" />
              <mxPoint x="10" y="1280" />
              <mxPoint x="10" y="2390" />
              <mxPoint x="670" y="2390" />
              <mxPoint x="670" y="1940" />
            </Array>
          </mxGeometry>
        </mxCell>
        <mxCell id="5aSi395ixU3ctmeISOfq-358" style="edgeStyle=orthogonalEdgeStyle;rounded=0;orthogonalLoop=1;jettySize=auto;html=1;" edge="1" parent="1" source="5aSi395ixU3ctmeISOfq-339">
          <mxGeometry relative="1" as="geometry">
            <mxPoint x="3230" y="1960" as="targetPoint" />
            <Array as="points">
              <mxPoint x="3780" y="1235" />
              <mxPoint x="3780" y="2300" />
              <mxPoint x="3230" y="2300" />
            </Array>
          </mxGeometry>
        </mxCell>
        <mxCell id="5aSi395ixU3ctmeISOfq-339" value="Vehicle Pose" style="text;html=1;align=center;verticalAlign=middle;whiteSpace=wrap;rounded=0;" vertex="1" parent="1">
          <mxGeometry x="385" y="1220" width="110" height="30" as="geometry" />
        </mxCell>
      </root>
    </mxGraphModel>
  </diagram>
</mxfile>
